<svg width="494" height="218" fill="none" xmlns="http://www.w3.org/2000/svg"><rect x="156.776" width="179.765" height="217.243" rx="20.327" fill="#fff"/><rect opacity=".3" x="353.128" y="41.289" width="140.382" height="168.966" rx="15.245" transform="rotate(3 353.128 41.289)" fill="#fff"/><rect opacity=".3" y="48.636" width="140.382" height="168.966" rx="15.245" transform="rotate(-3 0 48.636)" fill="#fff"/><rect x="186.849" y="22" width="61.896" height="6.515" rx="3.258" fill="#DA9B48"/><rect x="186.849" y="39.374" width="122.706" height="40.178" rx="4.718" fill="#DA9B48"/><rect x="293.266" y="22" width="16.288" height="6.515" rx="3.258" fill="#DA9B48"/><path d="M179.248 138.19H316.07v56.466a4.344 4.344 0 0 1-4.344 4.344H183.591a4.344 4.344 0 0 1-4.343-4.344V138.19Z" fill="#F0DABE"/><path d="M188.582 91.216c-.104 0-.221-.013-.352-.04a1.424 1.424 0 0 1-.912-.716 1.316 1.316 0 0 1-.755.065c-.27-.06-.5-.2-.691-.417a1.237 1.237 0 0 1-.313-.938c.018-.365.161-.665.43-.9.096-.077.2-.169.313-.273.104-.113.217-.226.339-.339.208-.208.425-.421.651-.638a9.297 9.297 0 0 1 1.095-.873c.139-.087.269-.161.391-.222.451-.217.894-.278 1.329-.182.495.139.838.456 1.029.951.122.347.118.712-.013 1.095l-.052.13a1.79 1.79 0 0 1-.065.143c.313.148.539.391.678.73a1.33 1.33 0 0 1-.04 1.016 1.224 1.224 0 0 1-.742.665l-.743.287c-.226.078-.417.143-.573.195a8.793 8.793 0 0 0-.417.156c-.087.018-.178.04-.274.066-.096.026-.2.039-.313.039Zm3.589 0c-.104 0-.222-.013-.352-.04a1.42 1.42 0 0 1-.912-.716 1.319 1.319 0 0 1-.756.065c-.269-.06-.499-.2-.691-.417a1.24 1.24 0 0 1-.312-.938c.017-.365.16-.665.43-.9a7.38 7.38 0 0 0 .312-.273 6.77 6.77 0 0 1 .339-.339c.209-.208.426-.421.652-.638a9.084 9.084 0 0 1 1.094-.873c.139-.087.27-.161.391-.222.452-.217.895-.278 1.329-.182.496.139.839.456 1.03.951a1.64 1.64 0 0 1-.013 1.095l-.052.13a1.826 1.826 0 0 1-.066.143c.313.148.539.391.678.73.122.347.109.686-.039 1.016a1.226 1.226 0 0 1-.743.665l-.743.287c-.225.078-.416.143-.573.195a4.664 4.664 0 0 1-.247.091l-.17.065c-.087.018-.178.04-.273.066-.096.026-.2.039-.313.039Zm10.356 1.16c-.157 0-.322-.022-.496-.066-.391-.095-.669-.317-.834-.664-.113-.226-.165-.43-.156-.613l.039-.417.026-.13a.897.897 0 0 0 .039-.156 3.724 3.724 0 0 1-.169.09 3.852 3.852 0 0 1-.17.053 1.328 1.328 0 0 1-1.185-.143 1.268 1.268 0 0 1-.482-.639c-.113-.33-.096-.66.052-.99a1.22 1.22 0 0 1 .729-.678c.035-.008.113-.043.235-.104.122-.07.304-.195.547-.378a15 15 0 0 0 .978-.795c.347-.304.642-.569.886-.795l.377-.365c.166-.165.357-.278.574-.338.226-.061.452-.057.677.013.374.095.643.312.808.651.052.087.096.222.131.404.043.174.03.374-.039.6 0 .008-.005.017-.013.026-.009.008-.014.021-.014.039a.71.71 0 0 0-.026.065.141.141 0 0 1-.013.065c-.017.06-.043.126-.078.195l-.091.248a7.853 7.853 0 0 0-.117.313c-.035.113-.078.23-.131.352.018-.01.035-.018.053-.026a1.223 1.223 0 0 1 1.029-.222c.347.07.617.256.808.56.208.296.274.621.195.978a1.245 1.245 0 0 1-.56.834 18.28 18.28 0 0 0-.599.417c-.183.13-.37.269-.561.417a36.52 36.52 0 0 1-.612.456c-.183.139-.369.26-.56.365-.139.078-.27.138-.391.182a3.14 3.14 0 0 1-.365.13 2.372 2.372 0 0 1-.521.065Zm3.878.078c-.095 0-.187-.005-.274-.013a.974.974 0 0 1-.182-.014 1.807 1.807 0 0 1-.652-.338 1.394 1.394 0 0 1-.43-.548 1.297 1.297 0 0 1-.117-.325 2.06 2.06 0 0 1 .013-.717 11.275 11.275 0 0 1-.247-.17 1.05 1.05 0 0 1-.196-.195 1.455 1.455 0 0 1-.313-.886c0-.208.048-.408.144-.6.087-.19.208-.355.365-.495l.247-.247c.113-.122.217-.243.313-.365l.261-.287.377-.404c.131-.139.252-.265.365-.377.139-.122.261-.226.365-.313.104-.087.196-.157.274-.209.452-.278.921-.365 1.407-.26.504.13.838.412 1.003.847l-.013-.013c.035.078.061.156.079.234.026.07.043.144.052.222.121-.13.23-.252.326-.365.095-.122.182-.23.26-.326l.183-.208a.223.223 0 0 0 .039-.052l.026-.04c.2-.234.434-.4.703-.495.278-.104.556-.121.834-.052.191.052.365.148.522.287.165.139.299.3.404.482.121.278.173.517.156.717a2.437 2.437 0 0 1-.039.39 1.047 1.047 0 0 1-.039.118l-.026.117-.079.248-.013.039c.174.008.348.056.522.143.173.078.317.187.43.326.113.139.195.29.247.456.061.165.091.326.091.482 0 .434-.178.804-.534 1.108l-.065.065c-.182.156-.378.313-.586.469-.2.156-.413.304-.639.443-.512.304-1.016.456-1.511.456-.209 0-.417-.03-.626-.091a1.408 1.408 0 0 1-.443-.183 1.633 1.633 0 0 1-.339-.3c-.104.088-.204.17-.299.248-.096.07-.205.144-.326.222h.013c-.2.139-.391.256-.573.352a7.006 7.006 0 0 1-.522.247 1.85 1.85 0 0 1-.469.13c-.165.027-.321.04-.469.04Zm7.704-1.238c-.104 0-.221-.013-.352-.04a1.424 1.424 0 0 1-.912-.716 1.319 1.319 0 0 1-.756.065c-.269-.06-.499-.2-.69-.417a1.237 1.237 0 0 1-.313-.938c.017-.365.161-.665.43-.9.096-.077.2-.169.313-.273.104-.113.217-.226.339-.339.208-.208.425-.421.651-.638a9.297 9.297 0 0 1 1.095-.873c.139-.087.269-.161.391-.222.451-.217.894-.278 1.329-.182.495.139.838.456 1.029.951.122.347.117.712-.013 1.095l-.052.13a1.79 1.79 0 0 1-.065.143c.313.148.538.391.677.73.122.347.109.686-.039 1.016a1.224 1.224 0 0 1-.742.665l-.743.287c-.226.078-.417.143-.573.195-.087.035-.17.065-.248.091l-.169.065c-.087.018-.179.04-.274.066-.096.026-.2.039-.313.039Zm6.416.26c-.121 0-.256-.021-.404-.065-.443-.104-.747-.373-.912-.808-.139-.33-.134-.703.013-1.12.052-.148.131-.322.235-.522.017-.034.035-.073.052-.117.026-.043.052-.082.078-.117-.191.104-.386.217-.586.339-.191.113-.387.221-.587.325-.347.218-.686.417-1.016.6-.33.174-.634.321-.912.443a1.229 1.229 0 0 1-.991.026 1.223 1.223 0 0 1-.716-.69 1.225 1.225 0 0 1-.026-.991c.13-.339.36-.578.69-.717.2-.095.448-.221.743-.378.295-.165.604-.343.925-.534.383-.226.786-.456 1.212-.69.426-.244.838-.452 1.238-.626.46-.226.89-.378 1.29-.456a3.79 3.79 0 0 1 .782-.117c.243-.009.473.017.691.078.477.139.803.434.977.886.13.321.148.643.052.964a4.373 4.373 0 0 1-.352.886l.078-.026c.035-.009.065-.017.092-.026a1.2 1.2 0 0 1 .977.052c.33.148.556.391.677.73.122.339.109.673-.039 1.003a1.224 1.224 0 0 1-.742.665l-1.121.39c-.339.123-.639.227-.899.314-.356.104-.652.182-.886.234-.226.044-.43.065-.613.065Zm4.077.978a2.73 2.73 0 0 1-.273-.013.986.986 0 0 1-.183-.014 1.795 1.795 0 0 1-.651-.338 1.376 1.376 0 0 1-.43-.548c-.061-.121-.1-.23-.118-.325a2.06 2.06 0 0 1 .013-.717c-.078-.052-.16-.109-.247-.17a1.05 1.05 0 0 1-.196-.195 1.454 1.454 0 0 1-.312-.886c0-.208.047-.408.143-.6.087-.19.208-.355.365-.495l.247-.247a5.64 5.64 0 0 0 .313-.365l.261-.287.378-.404c.13-.139.252-.265.364-.377.139-.122.261-.226.365-.313.105-.087.196-.157.274-.209.452-.278.921-.365 1.407-.26.504.13.839.412 1.004.847l-.013-.013c.034.078.06.156.078.234.026.07.043.144.052.222.122-.13.23-.252.326-.365.095-.122.182-.23.26-.326l.183-.208a.223.223 0 0 0 .039-.052l.026-.04c.2-.234.434-.4.704-.495.277-.104.555-.121.833-.052.192.052.365.148.522.287.165.139.299.3.404.482.121.278.173.517.156.717a2.437 2.437 0 0 1-.039.39 1.047 1.047 0 0 1-.039.118l-.026.117-.078.248-.013.039c.173.008.347.056.521.143.174.078.317.187.43.326.113.139.195.29.247.456.061.165.092.326.092.482 0 .434-.178.804-.535 1.108l-.065.065c-.182.156-.378.313-.586.469-.2.156-.413.304-.639.443-.512.304-1.016.456-1.511.456-.209 0-.417-.03-.626-.091a1.408 1.408 0 0 1-.443-.183 1.633 1.633 0 0 1-.339-.3c-.104.088-.204.17-.299.248-.096.07-.204.144-.326.222h.013c-.2.139-.391.256-.573.352a7.006 7.006 0 0 1-.522.247 1.85 1.85 0 0 1-.469.13c-.165.027-.321.04-.469.04Zm13.273 0c-.096 0-.187-.005-.274-.013a.974.974 0 0 1-.182-.014 1.791 1.791 0 0 1-.652-.338 1.394 1.394 0 0 1-.43-.548c-.061-.121-.1-.23-.117-.325a2.06 2.06 0 0 1 .013-.717 14.252 14.252 0 0 1-.248-.17 1.01 1.01 0 0 1-.195-.195 1.449 1.449 0 0 1-.313-.886c0-.208.048-.408.143-.6.087-.19.209-.355.365-.495l.248-.247c.113-.122.217-.243.313-.365l.26-.287.378-.404c.13-.139.252-.265.365-.377.139-.122.261-.226.365-.313.104-.087.195-.157.273-.209.452-.278.921-.365 1.408-.26.504.13.838.412 1.003.847l-.013-.013c.035.078.061.156.078.234.026.07.044.144.052.222.122-.13.231-.252.326-.365.096-.122.183-.23.261-.326l.182-.208a.178.178 0 0 0 .039-.052l.026-.04c.2-.234.435-.4.704-.495.278-.104.556-.121.834-.052.191.052.365.148.521.287.165.139.3.3.404.482.122.278.174.517.156.717a2.218 2.218 0 0 1-.039.39.753.753 0 0 1-.039.118 1.692 1.692 0 0 1-.026.117l-.078.248-.013.039c.174.008.347.056.521.143.174.078.317.187.43.326.113.139.196.29.248.456.061.165.091.326.091.482 0 .434-.178.804-.534 1.108l-.065.065c-.183.156-.378.313-.587.469a6.91 6.91 0 0 1-.638.443c-.513.304-1.017.456-1.512.456-.208 0-.417-.03-.625-.091a1.398 1.398 0 0 1-.782-.482c-.104.087-.204.17-.3.247-.095.07-.204.144-.326.222h.013c-.199.139-.39.256-.573.352a6.81 6.81 0 0 1-.521.247 1.85 1.85 0 0 1-.469.13c-.165.027-.322.04-.469.04Zm15.292-.847c-.322 0-.595-.096-.821-.287a1.317 1.317 0 0 1-.443-1.381l.013-.026c.009-.026.017-.057.026-.092a8.246 8.246 0 0 1-1.303.652c-.33.122-.66.109-.99-.04a1.27 1.27 0 0 1-.678-.729 1.228 1.228 0 0 1 .039-1.003c.156-.33.4-.556.73-.678.147-.052.395-.178.743-.378.356-.2.838-.543 1.446-1.03.365-.294.665-.55.899-.768l.365-.339c.356-.339.773-.447 1.251-.325.356.095.625.303.808.625.139.243.2.49.182.743a5.467 5.467 0 0 1-.143.873 1.417 1.417 0 0 1-.052.26 4.934 4.934 0 0 0-.078.261 1.31 1.31 0 0 1 .768.182c.244.14.422.34.535.6.147.321.156.651.026.99-.131.33-.361.57-.691.717-.373.165-.712.326-1.016.482l-.717.378a3.075 3.075 0 0 1-.274.143c-.208.113-.417.17-.625.17Zm6.641-.13c-.121 0-.256-.022-.404-.066-.443-.104-.747-.373-.912-.808-.139-.33-.135-.703.013-1.12.052-.148.13-.322.235-.522a2.13 2.13 0 0 0 .052-.117c.026-.043.052-.082.078-.117-.191.104-.387.217-.586.339-.191.113-.387.221-.587.325-.347.218-.686.417-1.016.6-.33.174-.634.321-.912.443a1.229 1.229 0 0 1-.991.026 1.223 1.223 0 0 1-.716-.69 1.225 1.225 0 0 1-.026-.991c.13-.339.36-.578.69-.717.2-.095.448-.221.743-.378.295-.165.604-.343.925-.534.382-.226.786-.456 1.212-.69.426-.244.838-.452 1.238-.626.46-.226.89-.378 1.29-.456a3.79 3.79 0 0 1 .782-.117c.243-.009.473.017.69.078.478.139.804.434.978.886.13.321.147.643.052.964a4.373 4.373 0 0 1-.352.886l.078-.026c.035-.009.065-.017.091-.026.331-.121.656-.104.978.052.33.148.556.391.677.73.122.339.109.673-.039 1.003a1.224 1.224 0 0 1-.742.665l-1.121.39c-.339.123-.639.227-.899.314-.356.104-.652.182-.886.234-.226.044-.43.065-.613.065Zm4.077.977c-.095 0-.187-.005-.274-.013a.974.974 0 0 1-.182-.014 1.807 1.807 0 0 1-.652-.338 1.394 1.394 0 0 1-.43-.548 1.297 1.297 0 0 1-.117-.325 2.06 2.06 0 0 1 .013-.717c-.078-.052-.16-.109-.247-.17a1.05 1.05 0 0 1-.196-.195 1.455 1.455 0 0 1-.313-.886c0-.208.048-.408.144-.6.087-.19.208-.355.365-.495l.247-.247c.113-.122.217-.243.313-.365l.261-.287.377-.404c.131-.139.252-.265.365-.377.139-.122.261-.226.365-.313.104-.087.196-.157.274-.209.452-.278.921-.365 1.407-.26.504.13.838.412 1.004.847l-.014-.013c.035.078.061.156.079.234.026.07.043.144.052.222.121-.13.23-.252.326-.365.095-.122.182-.23.26-.326l.183-.208a.223.223 0 0 0 .039-.052l.026-.04c.2-.234.434-.4.703-.495.278-.104.556-.121.834-.052.191.052.365.148.522.287.165.139.299.3.404.482.121.278.173.517.156.717a2.437 2.437 0 0 1-.039.39 1.047 1.047 0 0 1-.039.118l-.026.117-.079.248-.013.039c.174.008.348.056.522.143.173.078.317.187.43.326.113.139.195.29.247.456.061.165.092.326.092.482 0 .434-.179.804-.535 1.108l-.065.065c-.182.156-.378.313-.586.469-.2.156-.413.304-.639.443-.512.304-1.016.456-1.511.456-.209 0-.417-.03-.626-.091a1.408 1.408 0 0 1-.443-.183 1.633 1.633 0 0 1-.339-.3c-.104.088-.204.17-.299.248-.096.07-.205.144-.326.222h.013c-.2.139-.391.256-.573.352a7.006 7.006 0 0 1-.522.247 1.85 1.85 0 0 1-.469.13c-.165.027-.321.04-.469.04Zm6.935 0c-.095 0-.186-.005-.273-.013a.994.994 0 0 1-.183-.014 1.795 1.795 0 0 1-.651-.338 1.385 1.385 0 0 1-.43-.548c-.061-.121-.1-.23-.118-.325a1.942 1.942 0 0 1 .014-.717 11.245 11.245 0 0 1-.248-.17 1.05 1.05 0 0 1-.196-.195 1.454 1.454 0 0 1-.312-.886c0-.208.048-.408.143-.6.087-.19.209-.355.365-.495l.248-.247c.112-.122.217-.243.312-.365l.261-.287.378-.404c.13-.139.252-.265.365-.377.139-.122.26-.226.364-.313.105-.087.196-.157.274-.209.452-.278.921-.365 1.407-.26.504.13.839.412 1.004.847l-.013-.013c.035.078.061.156.078.234.026.07.043.144.052.222.122-.13.23-.252.326-.365.095-.122.182-.23.26-.326l.183-.208a.223.223 0 0 0 .039-.052l.026-.04c.2-.234.434-.4.704-.495.278-.104.556-.121.834-.052.191.052.365.148.521.287.165.139.3.3.404.482.121.278.174.517.156.717a2.322 2.322 0 0 1-.039.39 1.047 1.047 0 0 1-.039.118c-.009.043-.017.082-.026.117l-.078.248-.013.039c.173.008.347.056.521.143.174.078.317.187.43.326.113.139.195.29.248.456.06.165.091.326.091.482 0 .434-.178.804-.534 1.108l-.066.065c-.182.156-.378.313-.586.469-.2.156-.413.304-.639.443-.512.304-1.016.456-1.511.456-.209 0-.417-.03-.626-.091a1.408 1.408 0 0 1-.443-.183 1.602 1.602 0 0 1-.338-.3l-.3.248c-.096.07-.204.144-.326.222h.013c-.2.139-.391.256-.573.352a6.993 6.993 0 0 1-.521.247c-.139.061-.296.104-.47.13-.165.027-.321.04-.469.04ZM208.882 177.497c-.268 0-.496-.079-.684-.239a1.048 1.048 0 0 1-.359-.521 1.1 1.1 0 0 1-.01-.63l.01-.021a.716.716 0 0 0 .022-.076c-.398.239-.76.42-1.086.543-.275.101-.55.09-.825-.033a1.06 1.06 0 0 1-.565-.608 1.025 1.025 0 0 1 .033-.836 1.06 1.06 0 0 1 .608-.565c.123-.043.329-.148.619-.315.297-.166.699-.452 1.205-.858.304-.246.554-.459.75-.64l.304-.283a1.05 1.05 0 0 1 1.042-.271c.297.08.521.253.673.521.116.203.167.409.152.619-.014.21-.054.453-.119.728a1.13 1.13 0 0 1-.044.217 5.1 5.1 0 0 0-.065.217c.232-.014.446.036.641.152.203.116.351.282.445.5.123.267.13.542.022.825a1.062 1.062 0 0 1-.576.597c-.311.138-.593.272-.847.402a421.183 421.183 0 0 1-.825.434 1.086 1.086 0 0 1-.521.141Zm2.537.706c-.079 0-.155-.003-.228-.011a.756.756 0 0 1-.152-.011 1.499 1.499 0 0 1-.543-.282 1.162 1.162 0 0 1-.358-.456 1.047 1.047 0 0 1-.098-.271 1.697 1.697 0 0 1 .011-.598 7.838 7.838 0 0 1-.206-.141.83.83 0 0 1-.163-.163 1.205 1.205 0 0 1-.261-.738c0-.174.04-.34.12-.5a1.21 1.21 0 0 1 .304-.412l.206-.207c.094-.101.181-.202.261-.304l.217-.239.315-.336c.108-.116.21-.221.304-.315.116-.101.217-.188.304-.261.087-.072.163-.13.228-.173a1.55 1.55 0 0 1 1.173-.218c.42.109.698.344.836.706l-.011-.011c.029.066.051.131.065.196a.785.785 0 0 1 .044.184c.101-.108.191-.209.271-.304l.217-.271.152-.174a.155.155 0 0 0 .033-.043l.022-.033c.166-.195.361-.333.586-.412.232-.087.463-.102.695-.044.159.044.304.123.434.239.138.116.25.25.337.402.101.231.145.431.13.597a2.017 2.017 0 0 1-.032.326 1.133 1.133 0 0 1-.033.098 1.304 1.304 0 0 1-.022.097l-.065.207-.011.032c.145.007.29.047.435.12a.962.962 0 0 1 .358.271c.094.116.163.243.206.38.051.138.076.272.076.402 0 .362-.148.67-.445.923l-.054.054a8.998 8.998 0 0 1-.489.391c-.166.13-.344.253-.532.369-.427.254-.847.38-1.26.38-.173 0-.347-.025-.521-.076a1.162 1.162 0 0 1-.651-.401l-.25.206c-.08.058-.17.119-.272.185h.011a4.64 4.64 0 0 1-.912.499 1.542 1.542 0 0 1-.391.109 2.594 2.594 0 0 1-.391.032Zm8.777-.814c-.102 0-.214-.018-.337-.055a1.022 1.022 0 0 1-.76-.673c-.116-.275-.112-.586.011-.934a3.39 3.39 0 0 1 .195-.434 1.34 1.34 0 0 0 .044-.098.961.961 0 0 1 .065-.097c-.159.086-.322.181-.489.282-.159.094-.322.184-.488.271-.29.181-.572.348-.847.5a11.42 11.42 0 0 1-.761.369c-.267.123-.542.13-.825.022a1.021 1.021 0 0 1-.597-.576 1.026 1.026 0 0 1-.022-.825c.109-.282.301-.481.576-.597.166-.08.373-.185.619-.315.246-.138.503-.286.771-.445.318-.189.655-.38 1.01-.576.354-.203.698-.376 1.031-.521a4.382 4.382 0 0 1 1.075-.38c.232-.058.449-.091.652-.098.202-.007.394.015.575.065.398.116.67.362.815.739.108.267.123.535.043.803-.072.261-.17.507-.293.739l.065-.022c.029-.007.054-.015.076-.022a1 1 0 0 1 .815.044c.275.123.463.325.564.608.102.282.091.561-.032.836-.123.268-.33.452-.619.554a263.064 263.064 0 0 0-1.683.586c-.297.087-.543.152-.739.195a2.661 2.661 0 0 1-.51.055Zm6.394 0c-.101 0-.213-.018-.336-.055a1.022 1.022 0 0 1-.761-.673c-.115-.275-.112-.586.011-.934a3.56 3.56 0 0 1 .196-.434c.014-.029.029-.062.043-.098a1.48 1.48 0 0 1 .065-.097c-.159.086-.322.181-.488.282-.16.094-.322.184-.489.271-.29.181-.572.348-.847.5-.275.145-.528.268-.76.369-.268.123-.543.13-.825.022a1.02 1.02 0 0 1-.598-.576 1.022 1.022 0 0 1-.021-.825c.108-.282.3-.481.575-.597.167-.08.373-.185.619-.315.246-.138.503-.286.771-.445.319-.189.655-.38 1.01-.576a10.64 10.64 0 0 1 1.032-.521 4.368 4.368 0 0 1 1.075-.38c.231-.058.449-.091.651-.098.203-.007.395.015.576.065.398.116.669.362.814.739.109.267.123.535.044.803a3.698 3.698 0 0 1-.294.739l.066-.022c.029-.007.054-.015.076-.022a.998.998 0 0 1 .814.044c.275.123.463.325.565.608.101.282.09.561-.033.836a1.022 1.022 0 0 1-.619.554l-.934.325a30.08 30.08 0 0 1-.749.261c-.297.087-.543.152-.738.195a2.679 2.679 0 0 1-.511.055Zm3.398.814c-.08 0-.156-.003-.228-.011a.75.75 0 0 1-.152-.011 1.483 1.483 0 0 1-.543-.282 1.156 1.156 0 0 1-.359-.456 1.04 1.04 0 0 1-.119-.532c0-.116.011-.228.032-.337a7.838 7.838 0 0 1-.206-.141.86.86 0 0 1-.163-.163 1.204 1.204 0 0 1-.26-.738c0-.174.039-.34.119-.5.072-.159.174-.296.304-.412l.206-.207c.094-.101.181-.202.261-.304l.217-.239.315-.336c.109-.116.21-.221.304-.315.116-.101.217-.188.304-.261.087-.072.163-.13.228-.173a1.552 1.552 0 0 1 1.173-.218c.42.109.699.344.836.706l-.011-.011c.029.066.051.131.065.196a.739.739 0 0 1 .044.184c.101-.108.192-.209.271-.304l.217-.271.153-.174a.171.171 0 0 0 .032-.043l.022-.033c.166-.195.362-.333.586-.412.232-.087.464-.102.695-.044.159.044.304.123.435.239a1.5 1.5 0 0 1 .336.402c.101.231.145.431.13.597a2.017 2.017 0 0 1-.032.326.706.706 0 0 1-.033.098 2.211 2.211 0 0 1-.021.097l-.066.207-.01.032c.144.007.289.047.434.12a.954.954 0 0 1 .358.271c.094.116.163.243.207.38.05.138.076.272.076.402 0 .362-.149.67-.446.923l-.054.054a8.998 8.998 0 0 1-.489.391 5.68 5.68 0 0 1-.532.369c-.427.254-.847.38-1.259.38-.174 0-.348-.025-.522-.076a1.162 1.162 0 0 1-.651-.401l-.25.206c-.079.058-.17.119-.271.185h.011a4.758 4.758 0 0 1-.913.499 1.534 1.534 0 0 1-.39.109 2.604 2.604 0 0 1-.391.032Zm8.776-.814a1.18 1.18 0 0 1-.337-.055 1.022 1.022 0 0 1-.76-.673c-.116-.275-.112-.586.011-.934a3.56 3.56 0 0 1 .196-.434c.014-.029.029-.062.043-.098.022-.036.043-.068.065-.097-.159.086-.322.181-.488.282-.16.094-.323.184-.489.271-.29.181-.572.348-.847.5-.275.145-.529.268-.76.369-.268.123-.543.13-.825.022a1.02 1.02 0 0 1-.598-.576 1.022 1.022 0 0 1-.021-.825c.108-.282.3-.481.575-.597.167-.08.373-.185.619-.315.246-.138.503-.286.771-.445.319-.189.655-.38 1.01-.576.355-.203.698-.376 1.031-.521a4.388 4.388 0 0 1 1.076-.38c.231-.058.448-.091.651-.098.203-.007.395.015.576.065.398.116.669.362.814.739.109.267.123.535.043.803-.072.261-.17.507-.293.739l.065-.022a.933.933 0 0 0 .076-.022 1 1 0 0 1 .815.044c.275.123.463.325.564.608.102.282.091.561-.032.836a1.022 1.022 0 0 1-.619.554l-.934.325a30.08 30.08 0 0 1-.749.261c-.297.087-.543.152-.739.195a2.661 2.661 0 0 1-.51.055Zm6.394 0c-.101 0-.213-.018-.336-.055a1.02 1.02 0 0 1-.76-.673c-.116-.275-.112-.586.011-.934a3.39 3.39 0 0 1 .195-.434c.015-.029.029-.062.043-.098.022-.036.044-.068.066-.097-.16.086-.322.181-.489.282a10.42 10.42 0 0 1-.489.271c-.289.181-.572.348-.847.5-.275.145-.528.268-.76.369-.268.123-.543.13-.825.022a1.021 1.021 0 0 1-.597-.576 1.022 1.022 0 0 1-.022-.825c.109-.282.3-.481.576-.597.166-.08.372-.185.618-.315.247-.138.504-.286.771-.445.319-.189.656-.38 1.01-.576a10.64 10.64 0 0 1 1.032-.521 4.382 4.382 0 0 1 1.075-.38c.232-.058.449-.091.651-.098.203-.007.395.015.576.065.398.116.67.362.814.739.109.267.124.535.044.803-.073.261-.17.507-.293.739l.065-.022c.029-.007.054-.015.076-.022a.998.998 0 0 1 .814.044c.275.123.464.325.565.608.101.282.09.561-.033.836a1.022 1.022 0 0 1-.619.554l-.933.325c-.283.102-.533.189-.75.261-.297.087-.543.152-.738.195a2.662 2.662 0 0 1-.511.055Zm9.32-.217c-.087 0-.185-.011-.294-.033a1.186 1.186 0 0 1-.76-.597 1.099 1.099 0 0 1-.63.054 1.065 1.065 0 0 1-.575-.347 1.034 1.034 0 0 1-.261-.782 1.02 1.02 0 0 1 .359-.75c.079-.065.166-.141.26-.228.087-.094.181-.188.283-.282.173-.174.354-.351.543-.532a7.663 7.663 0 0 1 .912-.728 4.08 4.08 0 0 1 .325-.184c.377-.181.746-.232 1.108-.152.413.116.699.38.858.793.101.289.098.593-.011.912l-.043.108a1.911 1.911 0 0 1-.055.12c.261.123.449.326.565.608.101.289.09.572-.033.847a1.022 1.022 0 0 1-.619.554l-.619.239a38.48 38.48 0 0 1-.477.162 3.178 3.178 0 0 1-.207.076l-.141.055a3.079 3.079 0 0 0-.228.054.969.969 0 0 1-.26.033Zm4.032.325c-.267 0-.495-.079-.684-.239a1.1 1.1 0 0 1-.369-1.151l.011-.021.022-.076c-.398.239-.76.42-1.086.543-.275.101-.55.09-.825-.033a1.054 1.054 0 0 1-.565-.608 1.02 1.02 0 0 1 .032-.836c.131-.275.333-.463.609-.565.123-.043.329-.148.619-.315.296-.166.698-.452 1.205-.858.304-.246.554-.459.749-.64l.304-.283a1.051 1.051 0 0 1 1.043-.271c.296.08.521.253.673.521.116.203.166.409.152.619-.015.21-.054.453-.12.728a1.126 1.126 0 0 1-.043.217 3.966 3.966 0 0 0-.065.217c.232-.014.445.036.641.152.202.116.351.282.445.5.123.267.13.542.021.825-.108.275-.3.474-.575.597-.311.138-.594.272-.847.402a421.183 421.183 0 0 1-.825.434 1.09 1.09 0 0 1-.522.141Zm8.46-.325c-.087 0-.185-.011-.294-.033a1.186 1.186 0 0 1-.76-.597 1.099 1.099 0 0 1-.63.054 1.065 1.065 0 0 1-.575-.347 1.034 1.034 0 0 1-.261-.782 1.02 1.02 0 0 1 .359-.75c.079-.065.166-.141.26-.228.087-.094.181-.188.283-.282.173-.174.354-.351.542-.532a7.882 7.882 0 0 1 .913-.728 4.08 4.08 0 0 1 .325-.184c.377-.181.746-.232 1.108-.152.413.116.699.38.858.793.101.289.098.593-.011.912l-.043.108a1.911 1.911 0 0 1-.055.12c.261.123.449.326.565.608.101.289.09.572-.033.847a1.022 1.022 0 0 1-.619.554l-.619.239a38.48 38.48 0 0 1-.477.162 3.407 3.407 0 0 1-.207.076l-.141.055a3.079 3.079 0 0 0-.228.054.969.969 0 0 1-.26.033Zm2.349 1.031c-.079 0-.155-.003-.228-.011a.756.756 0 0 1-.152-.011 1.499 1.499 0 0 1-.543-.282 1.162 1.162 0 0 1-.358-.456 1.047 1.047 0 0 1-.098-.271 1.642 1.642 0 0 1 .011-.598 7.838 7.838 0 0 1-.206-.141.83.83 0 0 1-.163-.163 1.205 1.205 0 0 1-.261-.738c0-.174.04-.34.12-.5a1.21 1.21 0 0 1 .304-.412l.206-.207c.094-.101.181-.202.261-.304l.217-.239.315-.336c.108-.116.21-.221.304-.315.116-.101.217-.188.304-.261.087-.072.163-.13.228-.173a1.55 1.55 0 0 1 1.173-.218c.42.109.698.344.836.706l-.011-.011c.029.066.051.131.065.196a.785.785 0 0 1 .044.184c.101-.108.191-.209.271-.304l.217-.271.152-.174a.155.155 0 0 0 .033-.043l.021-.033a1.36 1.36 0 0 1 .587-.412c.232-.087.463-.102.695-.044.159.044.304.123.434.239.138.116.25.25.337.402.101.231.145.431.13.597a2.017 2.017 0 0 1-.032.326 1.133 1.133 0 0 1-.033.098c-.007.036-.015.068-.022.097l-.065.207-.011.032c.145.007.29.047.435.12a.962.962 0 0 1 .358.271c.094.116.163.243.206.38.051.138.076.272.076.402 0 .362-.148.67-.445.923l-.054.054a8.998 8.998 0 0 1-.489.391c-.166.13-.344.253-.532.369-.427.254-.847.38-1.26.38-.173 0-.347-.025-.521-.076a1.162 1.162 0 0 1-.651-.401l-.25.206c-.08.058-.17.119-.272.185h.011a4.544 4.544 0 0 1-.478.293 5.928 5.928 0 0 1-.434.206 1.542 1.542 0 0 1-.391.109 2.594 2.594 0 0 1-.391.032Zm8.777-.814c-.102 0-.214-.018-.337-.055a1.022 1.022 0 0 1-.76-.673c-.116-.275-.112-.586.011-.934a3.39 3.39 0 0 1 .195-.434 1.34 1.34 0 0 0 .044-.098.961.961 0 0 1 .065-.097c-.159.086-.322.181-.489.282-.159.094-.322.184-.488.271-.29.181-.572.348-.847.5a11.42 11.42 0 0 1-.761.369c-.267.123-.542.13-.825.022a1.021 1.021 0 0 1-.597-.576 1.026 1.026 0 0 1-.022-.825c.109-.282.301-.481.576-.597.166-.08.373-.185.619-.315.246-.138.503-.286.771-.445.318-.189.655-.38 1.01-.576.354-.203.698-.376 1.031-.521a4.382 4.382 0 0 1 1.075-.38c.232-.058.449-.091.652-.098.202-.007.394.015.575.065.398.116.67.362.815.739.108.267.123.535.043.803-.072.261-.17.507-.293.739l.065-.022c.029-.007.054-.015.076-.022a1 1 0 0 1 .815.044c.275.123.463.325.564.608.102.282.091.561-.032.836-.123.268-.33.452-.619.554a263.064 263.064 0 0 0-1.683.586c-.297.087-.543.152-.739.195a2.661 2.661 0 0 1-.51.055Zm3.397.814c-.08 0-.156-.003-.228-.011a.756.756 0 0 1-.152-.011 1.483 1.483 0 0 1-.543-.282 1.153 1.153 0 0 1-.358-.456 1.047 1.047 0 0 1-.098-.271 1.642 1.642 0 0 1 .011-.598 7.838 7.838 0 0 1-.206-.141.83.83 0 0 1-.163-.163 1.205 1.205 0 0 1-.261-.738c0-.174.04-.34.12-.5a1.21 1.21 0 0 1 .304-.412l.206-.207c.094-.101.181-.202.261-.304l.217-.239.315-.336c.108-.116.21-.221.304-.315.115-.101.217-.188.304-.261.087-.072.163-.13.228-.173a1.55 1.55 0 0 1 1.173-.218c.419.109.698.344.836.706l-.011-.011c.029.066.05.131.065.196a.738.738 0 0 1 .043.184c.102-.108.192-.209.272-.304.079-.101.152-.191.217-.271l.152-.174a.177.177 0 0 0 .033-.043l.021-.033a1.36 1.36 0 0 1 .587-.412c.231-.087.463-.102.695-.044.159.044.304.123.434.239.138.116.25.25.337.402.101.231.144.431.13.597a1.875 1.875 0 0 1-.033.326.846.846 0 0 1-.032.098c-.007.036-.015.068-.022.097l-.065.207-.011.032c.145.007.29.047.434.12a.957.957 0 0 1 .359.271c.094.116.163.243.206.38.051.138.076.272.076.402 0 .362-.148.67-.445.923l-.054.054a8.998 8.998 0 0 1-.489.391c-.167.13-.344.253-.532.369-.427.254-.847.38-1.26.38-.173 0-.347-.025-.521-.076a1.162 1.162 0 0 1-.652-.401l-.249.206c-.08.058-.17.119-.272.185h.011a4.649 4.649 0 0 1-.478.293 5.928 5.928 0 0 1-.434.206 1.542 1.542 0 0 1-.391.109 2.594 2.594 0 0 1-.391.032ZM188.005 105.759a.944.944 0 0 1-.843-.504.875.875 0 0 1-.504.044.852.852 0 0 1-.46-.278.826.826 0 0 1-.209-.626.813.813 0 0 1 .287-.599c.064-.052.133-.113.208-.182.07-.076.145-.151.226-.226.139-.139.284-.281.435-.426a5.936 5.936 0 0 1 .729-.582c.093-.058.18-.107.261-.148a1.34 1.34 0 0 1 .886-.121c.33.092.559.304.686.634.081.232.078.475-.008.73l-.035.087c-.012.028-.026.06-.044.095a.89.89 0 0 1 .452.487.887.887 0 0 1-.026.677.816.816 0 0 1-.495.443l-.495.191-.383.131a2.405 2.405 0 0 1-.165.06l-.113.044a2.754 2.754 0 0 0-.182.043.765.765 0 0 1-.208.026Zm1.879.826c-.063 0-.124-.003-.182-.009a.639.639 0 0 1-.122-.009 1.178 1.178 0 0 1-.434-.226.933.933 0 0 1-.287-.364.878.878 0 0 1-.078-.218 1.326 1.326 0 0 1 .009-.477l-.165-.113a.7.7 0 0 1-.131-.131.966.966 0 0 1-.208-.59.88.88 0 0 1 .096-.4.976.976 0 0 1 .243-.33l.165-.165c.075-.081.145-.162.208-.243l.174-.192.252-.269c.087-.092.168-.176.243-.252.093-.081.174-.15.243-.208.07-.058.131-.104.183-.139.301-.186.614-.243.938-.174.336.087.559.275.669.565l-.009-.009a.794.794 0 0 1 .052.156.603.603 0 0 1 .035.148c.081-.087.154-.168.217-.243.064-.081.122-.154.174-.217l.122-.139a.185.185 0 0 0 .026-.035l.017-.026a1.08 1.08 0 0 1 .469-.33.916.916 0 0 1 .556-.035.86.86 0 0 1 .348.191c.11.093.2.2.269.321.081.186.116.345.104.478a1.542 1.542 0 0 1-.026.261.592.592 0 0 1-.026.078l-.017.078-.052.165-.009.026a.866.866 0 0 1 .347.096.762.762 0 0 1 .287.217.93.93 0 0 1 .165.304c.041.11.061.217.061.322a.939.939 0 0 1-.356.738l-.044.043a6.95 6.95 0 0 1-.391.313 4.774 4.774 0 0 1-.425.296c-.342.202-.678.304-1.008.304-.139 0-.278-.021-.417-.061a.927.927 0 0 1-.521-.322l-.2.165a4.213 4.213 0 0 1-.217.148h.009a3.646 3.646 0 0 1-.383.235 5.056 5.056 0 0 1-.347.165 1.29 1.29 0 0 1-.313.087c-.11.017-.214.026-.313.026Zm7.022-.652a.961.961 0 0 1-.27-.043.82.82 0 0 1-.608-.539c-.093-.22-.09-.469.009-.747.035-.098.087-.214.156-.348a.99.99 0 0 0 .035-.078.88.88 0 0 1 .052-.078c-.127.07-.258.145-.391.226a8.172 8.172 0 0 1-.391.217c-.231.145-.457.278-.677.4-.22.116-.423.214-.608.295a.817.817 0 0 1-.661.017.808.808 0 0 1-.477-.46.816.816 0 0 1-.018-.66.814.814 0 0 1 .461-.478c.133-.064.298-.148.495-.252.197-.11.402-.229.617-.356a28.7 28.7 0 0 1 .807-.46 8.11 8.11 0 0 1 .826-.417 3.47 3.47 0 0 1 .86-.304c.185-.047.359-.073.521-.079.162-.005.316.012.46.052.319.093.536.29.652.591a.95.95 0 0 1 .035.643 2.902 2.902 0 0 1-.235.591l.052-.018a.518.518 0 0 0 .061-.017.803.803 0 0 1 .652.035c.22.098.37.26.451.486a.863.863 0 0 1-.026.669.816.816 0 0 1-.495.443 1832.844 1832.844 0 0 1-1.346.469c-.238.07-.435.122-.591.157a2.18 2.18 0 0 1-.408.043Zm9.34 0a.955.955 0 0 1-.269-.043.821.821 0 0 1-.609-.539c-.092-.22-.089-.469.009-.747a2.82 2.82 0 0 1 .157-.348c.011-.023.023-.049.034-.078.018-.029.035-.055.052-.078-.127.07-.257.145-.391.226a8.138 8.138 0 0 1-.39.217 15.06 15.06 0 0 1-.678.4c-.22.116-.423.214-.608.295a.815.815 0 0 1-.66.017.812.812 0 0 1-.478-.46.82.82 0 0 1-.018-.66.817.817 0 0 1 .461-.478c.133-.064.298-.148.495-.252.197-.11.403-.229.617-.356.255-.151.524-.304.808-.46.284-.163.559-.302.825-.417.307-.151.594-.252.86-.304.185-.047.359-.073.521-.079.162-.005.316.012.461.052.318.093.535.29.651.591a.945.945 0 0 1 .035.643 2.902 2.902 0 0 1-.235.591l.053-.018a.497.497 0 0 0 .06-.017.803.803 0 0 1 .652.035c.22.098.371.26.452.486a.868.868 0 0 1-.026.669.82.82 0 0 1-.496.443 1832.844 1832.844 0 0 1-1.346.469c-.238.07-.434.122-.591.157-.15.029-.286.043-.408.043Zm4.064.087a.821.821 0 0 1-.547-.191.875.875 0 0 1-.295-.921l.008-.017a.95.95 0 0 0 .018-.061 5.472 5.472 0 0 1-.869.434.842.842 0 0 1-.66-.026.846.846 0 0 1-.452-.486.818.818 0 0 1 .026-.669.848.848 0 0 1 .487-.452 3.69 3.69 0 0 0 .495-.252c.237-.133.559-.362.964-.686.243-.197.443-.368.599-.513l.244-.226a.84.84 0 0 1 .834-.217.85.85 0 0 1 .538.417.865.865 0 0 1 .122.495 3.726 3.726 0 0 1-.096.582.892.892 0 0 1-.034.174c-.018.052-.035.11-.053.174a.87.87 0 0 1 .513.122.82.82 0 0 1 .356.399.819.819 0 0 1 .018.66.849.849 0 0 1-.461.478c-.249.11-.475.217-.677.322l-.478.251a2.011 2.011 0 0 1-.183.096.872.872 0 0 1-.417.113Zm7.602 0a.822.822 0 0 1-.548-.191.876.876 0 0 1-.295-.921l.009-.017.017-.061a5.472 5.472 0 0 1-.869.434.842.842 0 0 1-.66-.026.846.846 0 0 1-.452-.486.818.818 0 0 1 .026-.669.85.85 0 0 1 .487-.452 3.69 3.69 0 0 0 .495-.252c.237-.133.559-.362.964-.686.243-.197.443-.368.6-.513l.243-.226a.84.84 0 0 1 .834-.217.85.85 0 0 1 .538.417.857.857 0 0 1 .122.495 3.599 3.599 0 0 1-.095.582.976.976 0 0 1-.035.174c-.018.052-.035.11-.052.174a.869.869 0 0 1 .512.122.82.82 0 0 1 .356.399.815.815 0 0 1 .018.66.849.849 0 0 1-.461.478c-.249.11-.475.217-.677.322l-.478.251a2.291 2.291 0 0 1-.182.096.872.872 0 0 1-.417.113Zm3.376 0a.82.82 0 0 1-.547-.191.837.837 0 0 1-.287-.417.884.884 0 0 1-.009-.504l.009-.017a.579.579 0 0 0 .017-.061 5.466 5.466 0 0 1-.868.434.845.845 0 0 1-.661-.026.844.844 0 0 1-.451-.486.818.818 0 0 1 .026-.669.846.846 0 0 1 .486-.452c.099-.035.264-.119.495-.252.238-.133.559-.362.965-.686.243-.197.443-.368.599-.513l.243-.226a.842.842 0 0 1 .834-.217.852.852 0 0 1 .539.417.865.865 0 0 1 .122.495 3.726 3.726 0 0 1-.096.582.895.895 0 0 1-.035.174c-.017.052-.035.11-.052.174a.874.874 0 0 1 .513.122.82.82 0 0 1 .356.399.819.819 0 0 1 .017.66.847.847 0 0 1-.46.478c-.249.11-.475.217-.678.322l-.478.251a1.935 1.935 0 0 1-.182.096.872.872 0 0 1-.417.113Zm3.376 0a.821.821 0 0 1-.547-.191.875.875 0 0 1-.295-.921l.008-.017a.95.95 0 0 0 .018-.061 5.472 5.472 0 0 1-.869.434.842.842 0 0 1-.66-.026.846.846 0 0 1-.452-.486.818.818 0 0 1 .026-.669.848.848 0 0 1 .487-.452 3.69 3.69 0 0 0 .495-.252c.237-.133.559-.362.964-.686.243-.197.443-.368.6-.513l.243-.226a.84.84 0 0 1 .834-.217.85.85 0 0 1 .538.417.857.857 0 0 1 .122.495 3.612 3.612 0 0 1-.096.582.892.892 0 0 1-.034.174c-.018.052-.035.11-.052.174a.869.869 0 0 1 .512.122.82.82 0 0 1 .356.399.819.819 0 0 1 .018.66.849.849 0 0 1-.461.478c-.249.11-.475.217-.677.322l-.478.251a2.011 2.011 0 0 1-.183.096.872.872 0 0 1-.417.113Zm2.83.513c-.105 0-.215-.015-.331-.044a.793.793 0 0 1-.556-.443.839.839 0 0 1-.104-.408l.026-.278.018-.087a.832.832 0 0 0 .026-.104 2.19 2.19 0 0 1-.113.06 1.915 1.915 0 0 1-.113.035.891.891 0 0 1-.791-.095.87.87 0 0 1-.286-1.086.813.813 0 0 1 .486-.452c.023-.006.075-.029.157-.069.081-.047.202-.131.364-.252.168-.122.385-.299.652-.53.232-.203.428-.38.591-.53l.252-.243a.847.847 0 0 1 .382-.226.8.8 0 0 1 .452.008.788.788 0 0 1 .538.435.843.843 0 0 1 .087.269.748.748 0 0 1-.026.4c0 .005-.003.011-.009.017-.006.006-.008.014-.008.026a.373.373 0 0 0-.018.043.664.664 0 0 1-.061.174 59.813 59.813 0 0 1-.226.608.378.378 0 0 0 .035-.017.819.819 0 0 1 .687-.148.799.799 0 0 1 .538.374.786.786 0 0 1 .13.651.827.827 0 0 1-.373.556 14.493 14.493 0 0 0-.773.556c-.145.11-.281.212-.409.304a2.943 2.943 0 0 1-.373.244c-.093.052-.18.092-.261.121a1.967 1.967 0 0 1-.243.087 1.576 1.576 0 0 1-.347.044Zm7.609 0c-.104 0-.214-.015-.33-.044a.791.791 0 0 1-.556-.443.839.839 0 0 1-.104-.408l.026-.278.017-.087a.586.586 0 0 0 .026-.104c-.04.023-.078.043-.113.06a1.671 1.671 0 0 1-.112.035.891.891 0 0 1-.791-.095.87.87 0 0 1-.287-1.086.817.817 0 0 1 .487-.452c.023-.006.075-.029.156-.069.081-.047.203-.131.365-.252.168-.122.385-.299.652-.53.231-.203.428-.38.59-.53l.252-.243a.852.852 0 0 1 .382-.226.8.8 0 0 1 .452.008.79.79 0 0 1 .539.435.843.843 0 0 1 .087.269.748.748 0 0 1-.026.4c0 .005-.003.011-.009.017-.006.006-.009.014-.009.026a.386.386 0 0 0-.017.043.733.733 0 0 1-.061.174l-.061.165a6.81 6.81 0 0 0-.078.209 2.269 2.269 0 0 1-.087.234l.035-.017a.816.816 0 0 1 .686-.148.8.8 0 0 1 .539.374.79.79 0 0 1 .13.651.83.83 0 0 1-.373.556 13.12 13.12 0 0 0-.774.556c-.144.11-.28.212-.408.304a2.943 2.943 0 0 1-.373.244c-.093.052-.18.092-.261.121a1.967 1.967 0 0 1-.243.087 1.584 1.584 0 0 1-.348.044Zm3.099-.774a.944.944 0 0 1-.843-.504.875.875 0 0 1-.504.044.849.849 0 0 1-.46-.278.826.826 0 0 1-.209-.626.813.813 0 0 1 .287-.599 5.19 5.19 0 0 0 .208-.182c.07-.076.145-.151.226-.226.139-.139.284-.281.434-.426a6.142 6.142 0 0 1 .73-.582c.093-.058.18-.107.261-.148a1.34 1.34 0 0 1 .886-.121c.33.092.559.304.686.634a1.09 1.09 0 0 1-.009.73l-.034.087c-.012.028-.026.06-.044.095a.89.89 0 0 1 .452.487.887.887 0 0 1-.026.677.818.818 0 0 1-.495.443l-.495.191-.383.131a2.613 2.613 0 0 1-.165.06l-.113.044a2.754 2.754 0 0 0-.182.043.765.765 0 0 1-.208.026Zm1.879.826c-.063 0-.124-.003-.182-.009a.639.639 0 0 1-.122-.009 1.178 1.178 0 0 1-.434-.226.933.933 0 0 1-.287-.364.878.878 0 0 1-.078-.218 1.313 1.313 0 0 1 .009-.477l-.165-.113a.7.7 0 0 1-.131-.131.966.966 0 0 1-.208-.59c0-.139.032-.273.095-.4a.979.979 0 0 1 .244-.33l.165-.165c.075-.081.145-.162.208-.243l.174-.192.252-.269c.087-.092.168-.176.243-.252.093-.081.174-.15.243-.208.07-.058.131-.104.183-.139.301-.186.614-.243.938-.174.336.087.559.275.669.565l-.009-.009a.794.794 0 0 1 .052.156.603.603 0 0 1 .035.148c.081-.087.154-.168.217-.243.064-.081.122-.154.174-.217l.122-.139a.185.185 0 0 0 .026-.035l.017-.026a1.08 1.08 0 0 1 .469-.33.916.916 0 0 1 .556-.035.86.86 0 0 1 .348.191c.11.093.199.2.269.321.081.186.116.345.104.478a1.542 1.542 0 0 1-.026.261.592.592 0 0 1-.026.078l-.017.078-.052.165-.009.026a.866.866 0 0 1 .347.096.762.762 0 0 1 .287.217.93.93 0 0 1 .165.304c.041.11.061.217.061.322a.939.939 0 0 1-.356.738l-.044.043a6.95 6.95 0 0 1-.391.313 4.774 4.774 0 0 1-.425.296c-.342.202-.678.304-1.008.304-.139 0-.278-.021-.417-.061a.927.927 0 0 1-.521-.322l-.2.165a4.213 4.213 0 0 1-.217.148h.009a3.646 3.646 0 0 1-.383.235 5.056 5.056 0 0 1-.347.165 1.29 1.29 0 0 1-.313.087c-.11.017-.214.026-.313.026Zm7.021-.652a.96.96 0 0 1-.269-.043.82.82 0 0 1-.608-.539c-.093-.22-.09-.469.009-.747.035-.098.087-.214.156-.348a.99.99 0 0 0 .035-.078.88.88 0 0 1 .052-.078c-.127.07-.258.145-.391.226a8.172 8.172 0 0 1-.391.217c-.231.145-.457.278-.677.4a9.376 9.376 0 0 1-.609.295.815.815 0 0 1-.66.017.812.812 0 0 1-.478-.46.82.82 0 0 1-.017-.66.814.814 0 0 1 .461-.478c.133-.064.298-.148.495-.252.197-.11.402-.229.616-.356.255-.151.525-.304.808-.46a8.11 8.11 0 0 1 .826-.417 3.47 3.47 0 0 1 .86-.304c.185-.047.359-.073.521-.079.162-.005.316.012.46.052.319.093.536.29.652.591a.95.95 0 0 1 .035.643 2.96 2.96 0 0 1-.235.591l.052-.018a.518.518 0 0 0 .061-.017.8.8 0 0 1 .651.035.81.81 0 0 1 .452.486.863.863 0 0 1-.026.669.816.816 0 0 1-.495.443 1832.844 1832.844 0 0 1-1.347.469c-.237.07-.434.122-.59.157a2.182 2.182 0 0 1-.409.043Zm7.742.6c-.104 0-.214-.015-.33-.044a.791.791 0 0 1-.556-.443.839.839 0 0 1-.104-.408l.026-.278.018-.087a.832.832 0 0 0 .026-.104 2.699 2.699 0 0 1-.113.06 1.915 1.915 0 0 1-.113.035.891.891 0 0 1-.791-.095.87.87 0 0 1-.287-1.086.817.817 0 0 1 .487-.452c.023-.006.075-.029.156-.069.081-.047.203-.131.365-.252.168-.122.385-.299.652-.53.231-.203.428-.38.59-.53l.252-.243a.85.85 0 0 1 .383-.226.796.796 0 0 1 .451.008.79.79 0 0 1 .539.435.843.843 0 0 1 .087.269.748.748 0 0 1-.026.4c0 .005-.003.011-.009.017-.006.006-.009.014-.009.026l-.017.043a.733.733 0 0 1-.061.174l-.061.165a6.81 6.81 0 0 0-.078.209 2.269 2.269 0 0 1-.087.234.378.378 0 0 0 .035-.017.817.817 0 0 1 .686-.148.798.798 0 0 1 .539.374.79.79 0 0 1 .13.651.83.83 0 0 1-.373.556 14.493 14.493 0 0 0-.773.556c-.145.11-.281.212-.409.304a2.943 2.943 0 0 1-.373.244c-.093.052-.18.092-.261.121a1.967 1.967 0 0 1-.243.087 1.584 1.584 0 0 1-.348.044Zm2.586.052a1.76 1.76 0 0 1-.182-.009.639.639 0 0 1-.122-.009 1.178 1.178 0 0 1-.434-.226.924.924 0 0 1-.287-.364.804.804 0 0 1-.078-.218 1.312 1.312 0 0 1 .009-.477l-.166-.113a.722.722 0 0 1-.13-.131.966.966 0 0 1-.208-.59c0-.139.032-.273.095-.4a.99.99 0 0 1 .243-.33l.166-.165c.075-.081.144-.162.208-.243l.174-.192.252-.269c.087-.092.168-.176.243-.252.093-.081.174-.15.243-.208.07-.058.13-.104.183-.139.301-.186.613-.243.938-.174.336.087.559.275.669.565l-.009-.009a.794.794 0 0 1 .052.156.603.603 0 0 1 .035.148c.081-.087.153-.168.217-.243.064-.081.122-.154.174-.217l.121-.139a1.329 1.329 0 0 0 .044-.061c.133-.157.289-.267.469-.33a.915.915 0 0 1 .556-.035.856.856 0 0 1 .347.191c.11.093.2.2.27.321.081.186.116.345.104.478a1.542 1.542 0 0 1-.026.261.789.789 0 0 1-.026.078 1.579 1.579 0 0 1-.018.078l-.052.165-.008.026a.87.87 0 0 1 .347.096.762.762 0 0 1 .287.217.93.93 0 0 1 .165.304.94.94 0 0 1 .061.322.939.939 0 0 1-.356.738l-.044.043a7.331 7.331 0 0 1-.391.313 4.774 4.774 0 0 1-.425.296c-.342.202-.678.304-1.008.304-.139 0-.278-.021-.417-.061a.942.942 0 0 1-.521-.322l-.2.165a4.213 4.213 0 0 1-.217.148h.008c-.133.093-.26.171-.382.235a5.289 5.289 0 0 1-.347.165 1.29 1.29 0 0 1-.313.087c-.11.017-.214.026-.313.026Zm8.848 0c-.063 0-.124-.003-.182-.009a.639.639 0 0 1-.122-.009 1.178 1.178 0 0 1-.434-.226.933.933 0 0 1-.287-.364.878.878 0 0 1-.078-.218 1.326 1.326 0 0 1 .009-.477l-.165-.113a.7.7 0 0 1-.131-.131.966.966 0 0 1-.208-.59.88.88 0 0 1 .096-.4.976.976 0 0 1 .243-.33l.165-.165c.075-.081.145-.162.208-.243l.174-.192.252-.269c.087-.092.168-.176.243-.252.093-.081.174-.15.243-.208.07-.058.131-.104.183-.139.301-.186.614-.243.938-.174.336.087.559.275.669.565l-.009-.009a.794.794 0 0 1 .052.156.603.603 0 0 1 .035.148c.081-.087.154-.168.217-.243.064-.081.122-.154.174-.217l.122-.139a.185.185 0 0 0 .026-.035l.017-.026a1.08 1.08 0 0 1 .469-.33.916.916 0 0 1 .556-.035.86.86 0 0 1 .348.191c.11.093.2.2.269.321.081.186.116.345.104.478a1.542 1.542 0 0 1-.026.261.592.592 0 0 1-.026.078l-.017.078-.052.165-.009.026a.866.866 0 0 1 .347.096.762.762 0 0 1 .287.217.93.93 0 0 1 .165.304c.041.11.061.217.061.322a.939.939 0 0 1-.356.738l-.044.043a6.95 6.95 0 0 1-.391.313 4.774 4.774 0 0 1-.425.296c-.342.202-.678.304-1.008.304-.139 0-.278-.021-.417-.061a.927.927 0 0 1-.521-.322l-.2.165a4.213 4.213 0 0 1-.217.148h.009a3.646 3.646 0 0 1-.383.235 5.056 5.056 0 0 1-.347.165 1.29 1.29 0 0 1-.313.087c-.11.017-.214.026-.313.026Zm5.97-.565a.821.821 0 0 1-.547-.191.875.875 0 0 1-.295-.921l.008-.017a.95.95 0 0 0 .018-.061 5.472 5.472 0 0 1-.869.434.842.842 0 0 1-.66-.026.846.846 0 0 1-.452-.486.818.818 0 0 1 .026-.669.848.848 0 0 1 .487-.452 3.69 3.69 0 0 0 .495-.252c.237-.133.559-.362.964-.686.243-.197.443-.368.6-.513l.243-.226a.84.84 0 0 1 .834-.217.85.85 0 0 1 .538.417.857.857 0 0 1 .122.495 3.612 3.612 0 0 1-.096.582.892.892 0 0 1-.034.174c-.018.052-.035.11-.052.174a.869.869 0 0 1 .512.122.82.82 0 0 1 .356.399.815.815 0 0 1 .018.66.849.849 0 0 1-.461.478c-.249.11-.475.217-.677.322l-.478.251a2.011 2.011 0 0 1-.183.096.872.872 0 0 1-.417.113Zm6.255.565a1.76 1.76 0 0 1-.182-.009.639.639 0 0 1-.122-.009 1.178 1.178 0 0 1-.434-.226.924.924 0 0 1-.287-.364.839.839 0 0 1-.095-.426c0-.093.008-.183.026-.269a7.144 7.144 0 0 1-.165-.113.7.7 0 0 1-.131-.131.966.966 0 0 1-.208-.59c0-.139.032-.273.095-.4a.979.979 0 0 1 .244-.33l.165-.165c.075-.081.144-.162.208-.243l.174-.192.252-.269c.087-.092.168-.176.243-.252.093-.081.174-.15.243-.208.07-.058.131-.104.183-.139.301-.186.614-.243.938-.174.336.087.559.275.669.565l-.009-.009a.794.794 0 0 1 .052.156.603.603 0 0 1 .035.148c.081-.087.153-.168.217-.243.064-.081.122-.154.174-.217l.121-.139a.157.157 0 0 0 .027-.035l.017-.026c.133-.157.289-.267.469-.33a.915.915 0 0 1 .556-.035.856.856 0 0 1 .347.191c.111.093.2.2.27.321.081.186.116.345.104.478a1.542 1.542 0 0 1-.026.261.789.789 0 0 1-.026.078l-.017.078-.053.165-.008.026a.87.87 0 0 1 .347.096.762.762 0 0 1 .287.217.93.93 0 0 1 .165.304.94.94 0 0 1 .061.322.939.939 0 0 1-.356.738l-.044.043a6.95 6.95 0 0 1-.391.313 4.774 4.774 0 0 1-.425.296c-.342.202-.678.304-1.008.304-.139 0-.278-.021-.417-.061a.927.927 0 0 1-.521-.322l-.2.165a4.213 4.213 0 0 1-.217.148h.008c-.133.093-.26.171-.382.235a5.289 5.289 0 0 1-.347.165 1.29 1.29 0 0 1-.313.087c-.11.017-.214.026-.313.026Zm5.97-.565a.82.82 0 0 1-.547-.191.875.875 0 0 1-.295-.921l.008-.017a.95.95 0 0 0 .018-.061 5.515 5.515 0 0 1-.869.434.842.842 0 0 1-.66-.026.846.846 0 0 1-.452-.486.818.818 0 0 1 .026-.669.846.846 0 0 1 .486-.452c.099-.035.264-.119.496-.252.237-.133.558-.362.964-.686.243-.197.443-.368.599-.513l.244-.226a.84.84 0 0 1 .834-.217.853.853 0 0 1 .538.417.865.865 0 0 1 .122.495 3.726 3.726 0 0 1-.096.582.895.895 0 0 1-.035.174c-.017.052-.034.11-.052.174a.872.872 0 0 1 .513.122.82.82 0 0 1 .356.399.819.819 0 0 1 .017.66.844.844 0 0 1-.46.478c-.249.11-.475.217-.678.322l-.477.251a2.011 2.011 0 0 1-.183.096.872.872 0 0 1-.417.113Zm2.03.565a1.76 1.76 0 0 1-.182-.009.639.639 0 0 1-.122-.009 1.178 1.178 0 0 1-.434-.226.924.924 0 0 1-.287-.364.804.804 0 0 1-.078-.218 1.312 1.312 0 0 1 .009-.477l-.166-.113a.722.722 0 0 1-.13-.131.966.966 0 0 1-.208-.59c0-.139.032-.273.095-.4a.99.99 0 0 1 .243-.33l.166-.165c.075-.081.144-.162.208-.243l.174-.192.252-.269c.087-.092.168-.176.243-.252.093-.081.174-.15.243-.208.07-.058.13-.104.183-.139.301-.186.613-.243.938-.174.336.087.559.275.669.565l-.009-.009a.794.794 0 0 1 .052.156.603.603 0 0 1 .035.148c.081-.087.153-.168.217-.243.064-.081.122-.154.174-.217l.121-.139a1.329 1.329 0 0 0 .044-.061c.133-.157.289-.267.469-.33a.915.915 0 0 1 .556-.035.856.856 0 0 1 .347.191c.11.093.2.2.27.321.081.186.116.345.104.478a1.659 1.659 0 0 1-.026.261.789.789 0 0 1-.026.078 1.579 1.579 0 0 1-.018.078l-.052.165-.008.026a.875.875 0 0 1 .347.096.762.762 0 0 1 .287.217.93.93 0 0 1 .165.304.94.94 0 0 1 .061.322.939.939 0 0 1-.356.738l-.044.043a7.331 7.331 0 0 1-.391.313 4.65 4.65 0 0 1-.426.296c-.341.202-.677.304-1.007.304-.139 0-.278-.021-.417-.061a.942.942 0 0 1-.521-.322l-.2.165a4.213 4.213 0 0 1-.217.148h.008c-.133.093-.26.171-.382.235a5.289 5.289 0 0 1-.347.165 1.29 1.29 0 0 1-.313.087c-.11.017-.214.026-.313.026Zm10.195-.565a.82.82 0 0 1-.547-.191.837.837 0 0 1-.287-.417.884.884 0 0 1-.009-.504l.009-.017a.579.579 0 0 0 .017-.061 5.466 5.466 0 0 1-.868.434.845.845 0 0 1-.661-.026.844.844 0 0 1-.451-.486.814.814 0 0 1 .026-.669.846.846 0 0 1 .486-.452c.099-.035.264-.119.495-.252.238-.133.559-.362.965-.686.243-.197.443-.368.599-.513l.243-.226a.842.842 0 0 1 .834-.217.852.852 0 0 1 .539.417.856.856 0 0 1 .121.495 3.599 3.599 0 0 1-.095.582.895.895 0 0 1-.035.174c-.017.052-.035.11-.052.174a.874.874 0 0 1 .513.122c.162.092.28.225.356.399a.819.819 0 0 1 .017.66.847.847 0 0 1-.46.478c-.249.11-.475.217-.678.322l-.478.251a2.097 2.097 0 0 1-.182.096.872.872 0 0 1-.417.113Zm2.829.513c-.104 0-.214-.015-.33-.044a.79.79 0 0 1-.556-.443.839.839 0 0 1-.104-.408l.026-.278.017-.087a.688.688 0 0 0 .026-.104c-.04.023-.078.043-.113.06a1.54 1.54 0 0 1-.113.035.886.886 0 0 1-.79-.095.875.875 0 0 1-.287-1.086.817.817 0 0 1 .487-.452c.023-.006.075-.029.156-.069.081-.047.203-.131.365-.252.168-.122.385-.299.651-.53.232-.203.429-.38.591-.53l.252-.243a.847.847 0 0 1 .382-.226.8.8 0 0 1 .452.008.79.79 0 0 1 .539.435.872.872 0 0 1 .086.269.738.738 0 0 1-.034.417c-.006.006-.009.014-.009.026a.257.257 0 0 0-.017.043.096.096 0 0 1-.009.044.818.818 0 0 1-.052.13l-.061.165a6.81 6.81 0 0 0-.078.209 2.269 2.269 0 0 1-.087.234l.035-.017a.819.819 0 0 1 .686-.148.8.8 0 0 1 .539.374.79.79 0 0 1 .13.651.828.828 0 0 1-.374.556 13.787 13.787 0 0 0-.773.556c-.145.11-.281.212-.408.304a2.953 2.953 0 0 1-.374.244 1.69 1.69 0 0 1-.26.121 1.967 1.967 0 0 1-.243.087 1.591 1.591 0 0 1-.348.044Zm4.983-.6a.96.96 0 0 1-.269-.043.82.82 0 0 1-.608-.539c-.093-.22-.09-.469.009-.747.034-.098.087-.214.156-.348a.99.99 0 0 0 .035-.078.88.88 0 0 1 .052-.078c-.127.07-.258.145-.391.226a8.172 8.172 0 0 1-.391.217c-.232.145-.457.278-.677.4a9.376 9.376 0 0 1-.609.295.815.815 0 0 1-.66.017.812.812 0 0 1-.478-.46.82.82 0 0 1-.017-.66.815.815 0 0 1 .46-.478c.134-.064.299-.148.496-.252.197-.11.402-.229.616-.356.255-.151.525-.304.808-.46a8.11 8.11 0 0 1 .826-.417 3.47 3.47 0 0 1 .86-.304c.185-.047.359-.073.521-.079a1.54 1.54 0 0 1 .46.052c.319.093.536.29.652.591a.95.95 0 0 1 .035.643 2.96 2.96 0 0 1-.235.591l.052-.018a.518.518 0 0 0 .061-.017.8.8 0 0 1 .651.035.81.81 0 0 1 .452.486.863.863 0 0 1-.026.669.816.816 0 0 1-.495.443l-.747.261c-.226.081-.426.15-.6.208-.237.07-.434.122-.59.157a2.182 2.182 0 0 1-.409.043Zm-114.62 9a.967.967 0 0 1-.27-.043.82.82 0 0 1-.608-.539c-.092-.22-.089-.469.009-.747.035-.098.087-.214.156-.348a.99.99 0 0 0 .035-.078.88.88 0 0 1 .052-.078c-.127.07-.258.145-.391.226a7.714 7.714 0 0 1-.391.217c-.231.145-.457.278-.677.4-.22.116-.423.214-.608.295a.817.817 0 0 1-.661.017.81.81 0 0 1-.477-.46.816.816 0 0 1-.018-.66.817.817 0 0 1 .461-.478c.133-.064.298-.148.495-.252.197-.11.402-.229.617-.356.254-.151.524-.304.808-.46.283-.163.558-.302.825-.417a3.47 3.47 0 0 1 .86-.304c.185-.047.359-.073.521-.079.162-.005.316.012.46.052.319.093.536.29.652.591a.95.95 0 0 1 .035.643 2.902 2.902 0 0 1-.235.591l.052-.018a.468.468 0 0 0 .061-.017.803.803 0 0 1 .652.035c.22.098.37.26.451.486a.859.859 0 0 1-.026.669.816.816 0 0 1-.495.443 1832.844 1832.844 0 0 1-1.346.469c-.238.07-.435.122-.591.157a2.18 2.18 0 0 1-.408.043Zm4.064.087a.82.82 0 0 1-.547-.191.837.837 0 0 1-.287-.417.884.884 0 0 1-.009-.504l.009-.017a.95.95 0 0 0 .018-.061 5.515 5.515 0 0 1-.869.434.842.842 0 0 1-.66-.026.843.843 0 0 1-.452-.486.818.818 0 0 1 .026-.669.846.846 0 0 1 .486-.452c.099-.035.264-.119.496-.252.237-.133.558-.362.964-.686.243-.197.443-.368.599-.513l.243-.226a.842.842 0 0 1 .834-.217.852.852 0 0 1 .539.417.865.865 0 0 1 .122.495 3.726 3.726 0 0 1-.096.582.895.895 0 0 1-.035.174c-.017.052-.034.11-.052.174a.872.872 0 0 1 .513.122.82.82 0 0 1 .356.399.819.819 0 0 1 .017.66.847.847 0 0 1-.46.478c-.249.11-.475.217-.678.322l-.477.251a2.011 2.011 0 0 1-.183.096.872.872 0 0 1-.417.113Zm3.377 0a.822.822 0 0 1-.548-.191.876.876 0 0 1-.295-.921l.009-.017.017-.061a5.472 5.472 0 0 1-.869.434.842.842 0 0 1-.66-.026.846.846 0 0 1-.452-.486.818.818 0 0 1 .026-.669.85.85 0 0 1 .487-.452 3.69 3.69 0 0 0 .495-.252c.237-.133.559-.362.964-.686.243-.197.443-.368.6-.513l.243-.226a.84.84 0 0 1 .834-.217.85.85 0 0 1 .538.417.857.857 0 0 1 .122.495 3.599 3.599 0 0 1-.095.582.976.976 0 0 1-.035.174c-.018.052-.035.11-.052.174a.869.869 0 0 1 .512.122.82.82 0 0 1 .356.399.815.815 0 0 1 .018.66.849.849 0 0 1-.461.478c-.249.11-.475.217-.677.322l-.478.251a2.291 2.291 0 0 1-.182.096.872.872 0 0 1-.417.113Zm2.542-.261a1.17 1.17 0 0 1-.235-.026.944.944 0 0 1-.608-.478.875.875 0 0 1-.504.044.852.852 0 0 1-.46-.278.825.825 0 0 1-.208-.626.812.812 0 0 1 .286-.599c.064-.052.133-.113.209-.182.069-.076.145-.151.226-.226.139-.139.283-.281.434-.426a5.941 5.941 0 0 1 .73-.582c.092-.058.179-.107.26-.148a1.34 1.34 0 0 1 .886-.121.99.99 0 0 1 .687.634 1.09 1.09 0 0 1-.009.73l-.035.087a1.4 1.4 0 0 1-.043.095.894.894 0 0 1 .452.487.883.883 0 0 1-.027.677.816.816 0 0 1-.495.443l-.495.191-.382.131a2.861 2.861 0 0 1-.165.06l-.113.044a2.635 2.635 0 0 0-.183.043.76.76 0 0 1-.208.026Zm7.451.261a.82.82 0 0 1-.547-.191.837.837 0 0 1-.287-.417.884.884 0 0 1-.009-.504l.009-.017a.95.95 0 0 0 .018-.061 5.515 5.515 0 0 1-.869.434.842.842 0 0 1-.66-.026.846.846 0 0 1-.452-.486.818.818 0 0 1 .026-.669.846.846 0 0 1 .486-.452c.099-.035.264-.119.496-.252.237-.133.558-.362.964-.686.243-.197.443-.368.599-.513l.243-.226a.842.842 0 0 1 .834-.217.852.852 0 0 1 .539.417.865.865 0 0 1 .122.495 3.726 3.726 0 0 1-.096.582.895.895 0 0 1-.035.174c-.017.052-.034.11-.052.174a.872.872 0 0 1 .513.122.82.82 0 0 1 .356.399.819.819 0 0 1 .017.66.847.847 0 0 1-.46.478c-.249.11-.475.217-.678.322l-.477.251a2.011 2.011 0 0 1-.183.096.872.872 0 0 1-.417.113Zm2.543-.261a.944.944 0 0 1-.843-.504.875.875 0 0 1-.504.044.852.852 0 0 1-.46-.278.826.826 0 0 1-.209-.626.813.813 0 0 1 .287-.599c.064-.052.133-.113.208-.182.07-.076.145-.151.226-.226.139-.139.284-.281.435-.426a5.936 5.936 0 0 1 .729-.582c.093-.058.18-.107.261-.148a1.34 1.34 0 0 1 .886-.121c.33.092.559.304.686.634.081.232.078.475-.008.73l-.035.087c-.012.028-.026.06-.044.095a.89.89 0 0 1 .452.487.882.882 0 0 1-.026.677.816.816 0 0 1-.495.443l-.495.191-.383.131a2.405 2.405 0 0 1-.165.06l-.113.044a2.754 2.754 0 0 0-.182.043.765.765 0 0 1-.208.026Zm4.277.174a.955.955 0 0 1-.269-.043.818.818 0 0 1-.608-.539c-.093-.22-.09-.469.008-.747a2.82 2.82 0 0 1 .157-.348c.011-.023.023-.049.034-.078a.878.878 0 0 1 .053-.078c-.128.07-.258.145-.391.226a8.69 8.69 0 0 1-.391.217 15.06 15.06 0 0 1-.678.4c-.22.116-.423.214-.608.295a.815.815 0 0 1-.66.017.812.812 0 0 1-.478-.46.82.82 0 0 1-.017-.66.815.815 0 0 1 .46-.478c.133-.064.298-.148.495-.252.197-.11.403-.229.617-.356.255-.151.524-.304.808-.46.284-.163.559-.302.825-.417.307-.151.594-.252.86-.304.186-.047.359-.073.521-.079.163-.005.316.012.461.052.318.093.536.29.651.591a.945.945 0 0 1 .035.643 2.958 2.958 0 0 1-.234.591l.052-.018a.579.579 0 0 0 .061-.017.8.8 0 0 1 .651.035c.22.098.371.26.452.486a.868.868 0 0 1-.026.669.821.821 0 0 1-.495.443l-.748.261a26.7 26.7 0 0 1-.599.208c-.237.07-.434.122-.591.157-.15.029-.286.043-.408.043Zm4.064.087a.821.821 0 0 1-.547-.191.875.875 0 0 1-.295-.921l.008-.017a.95.95 0 0 0 .018-.061 5.472 5.472 0 0 1-.869.434.842.842 0 0 1-.66-.026.846.846 0 0 1-.452-.486.818.818 0 0 1 .026-.669.85.85 0 0 1 .487-.452 3.69 3.69 0 0 0 .495-.252c.237-.133.559-.362.964-.686.243-.197.443-.368.6-.513l.243-.226a.84.84 0 0 1 .834-.217.85.85 0 0 1 .538.417.857.857 0 0 1 .122.495 3.612 3.612 0 0 1-.096.582.892.892 0 0 1-.034.174c-.018.052-.035.11-.052.174a.869.869 0 0 1 .512.122.82.82 0 0 1 .356.399.815.815 0 0 1 .018.66.849.849 0 0 1-.461.478c-.249.11-.475.217-.677.322l-.478.251a2.011 2.011 0 0 1-.183.096.872.872 0 0 1-.417.113Zm4.428-.087a.955.955 0 0 1-.269-.043.818.818 0 0 1-.608-.539c-.093-.22-.09-.469.008-.747a2.82 2.82 0 0 1 .157-.348c.011-.023.023-.049.034-.078a.878.878 0 0 1 .053-.078c-.128.07-.258.145-.391.226a8.69 8.69 0 0 1-.391.217 15.06 15.06 0 0 1-.678.4c-.22.116-.423.214-.608.295a.815.815 0 0 1-.66.017.812.812 0 0 1-.478-.46.82.82 0 0 1-.017-.66.815.815 0 0 1 .46-.478c.133-.064.298-.148.495-.252.197-.11.403-.229.617-.356.255-.151.524-.304.808-.46.284-.163.559-.302.825-.417.307-.151.594-.252.86-.304.186-.047.359-.073.521-.079.163-.005.316.012.461.052.318.093.536.29.651.591a.945.945 0 0 1 .035.643 2.958 2.958 0 0 1-.234.591l.052-.018a.579.579 0 0 0 .061-.017.8.8 0 0 1 .651.035c.22.098.371.26.452.486a.868.868 0 0 1-.026.669.821.821 0 0 1-.495.443l-.748.261a26.7 26.7 0 0 1-.599.208c-.237.07-.434.122-.591.157-.15.029-.286.043-.408.043Zm4.064.087a.821.821 0 0 1-.547-.191.875.875 0 0 1-.295-.921l.008-.017a.95.95 0 0 0 .018-.061 5.472 5.472 0 0 1-.869.434.842.842 0 0 1-.66-.026.846.846 0 0 1-.452-.486.818.818 0 0 1 .026-.669.85.85 0 0 1 .487-.452 3.69 3.69 0 0 0 .495-.252c.237-.133.559-.362.964-.686.243-.197.443-.368.6-.513l.243-.226a.84.84 0 0 1 .834-.217.85.85 0 0 1 .538.417.857.857 0 0 1 .122.495 3.612 3.612 0 0 1-.096.582.892.892 0 0 1-.034.174c-.018.052-.035.11-.052.174a.869.869 0 0 1 .512.122.82.82 0 0 1 .356.399.815.815 0 0 1 .018.66.849.849 0 0 1-.461.478c-.249.11-.475.217-.677.322l-.478.251a2.011 2.011 0 0 1-.183.096.872.872 0 0 1-.417.113Zm2.03.565c-.063 0-.124-.003-.182-.009a.639.639 0 0 1-.122-.009 1.178 1.178 0 0 1-.434-.226.933.933 0 0 1-.287-.364.878.878 0 0 1-.078-.218 1.326 1.326 0 0 1 .009-.477l-.165-.113a.7.7 0 0 1-.131-.131.966.966 0 0 1-.208-.59.88.88 0 0 1 .096-.4.976.976 0 0 1 .243-.33l.165-.165c.075-.081.145-.162.208-.243l.174-.192.252-.269c.087-.092.168-.176.243-.252.093-.081.174-.15.243-.208.07-.058.131-.104.183-.139.301-.186.614-.243.938-.174.336.087.559.275.669.565l-.009-.009a.794.794 0 0 1 .052.156.603.603 0 0 1 .035.148c.081-.087.154-.168.217-.243.064-.081.122-.154.174-.217l.122-.139a.185.185 0 0 0 .026-.035l.017-.026a1.08 1.08 0 0 1 .469-.33.916.916 0 0 1 .556-.035.86.86 0 0 1 .348.191c.11.093.2.2.269.321.081.186.116.345.104.478a1.542 1.542 0 0 1-.026.261.592.592 0 0 1-.026.078l-.017.078-.052.165-.009.026a.866.866 0 0 1 .347.096.762.762 0 0 1 .287.217.93.93 0 0 1 .165.304c.041.11.061.217.061.322a.939.939 0 0 1-.356.738l-.044.043a6.95 6.95 0 0 1-.391.313 4.774 4.774 0 0 1-.425.296c-.342.202-.678.304-1.008.304-.139 0-.278-.021-.417-.061a.927.927 0 0 1-.521-.322l-.2.165a4.213 4.213 0 0 1-.217.148h.009a3.646 3.646 0 0 1-.383.235 5.056 5.056 0 0 1-.347.165 1.29 1.29 0 0 1-.313.087c-.11.017-.214.026-.313.026Zm5.97-.565a.821.821 0 0 1-.547-.191.875.875 0 0 1-.295-.921l.008-.017a.95.95 0 0 0 .018-.061 5.472 5.472 0 0 1-.869.434.842.842 0 0 1-.66-.026.846.846 0 0 1-.452-.486.818.818 0 0 1 .026-.669.848.848 0 0 1 .487-.452 3.69 3.69 0 0 0 .495-.252c.237-.133.559-.362.964-.686.243-.197.443-.368.6-.513l.243-.226a.84.84 0 0 1 .834-.217.85.85 0 0 1 .538.417.857.857 0 0 1 .122.495 3.612 3.612 0 0 1-.096.582.892.892 0 0 1-.034.174c-.018.052-.035.11-.052.174a.869.869 0 0 1 .512.122.82.82 0 0 1 .356.399.819.819 0 0 1 .018.66.849.849 0 0 1-.461.478c-.249.11-.475.217-.677.322l-.478.251a2.011 2.011 0 0 1-.183.096.872.872 0 0 1-.417.113Zm4.428-.087a.955.955 0 0 1-.269-.043.818.818 0 0 1-.608-.539c-.093-.22-.09-.469.008-.747a2.82 2.82 0 0 1 .157-.348c.011-.023.023-.049.034-.078a.878.878 0 0 1 .053-.078c-.128.07-.258.145-.391.226a8.69 8.69 0 0 1-.391.217 15.06 15.06 0 0 1-.678.4c-.22.116-.423.214-.608.295a.815.815 0 0 1-.66.017.812.812 0 0 1-.478-.46.82.82 0 0 1-.017-.66.812.812 0 0 1 .46-.478c.133-.064.298-.148.495-.252.197-.11.403-.229.617-.356.255-.151.524-.304.808-.46.284-.163.559-.302.825-.417.307-.151.594-.252.86-.304.185-.047.359-.073.521-.079.163-.005.316.012.461.052.318.093.536.29.651.591a.945.945 0 0 1 .035.643 2.958 2.958 0 0 1-.234.591l.052-.018a.497.497 0 0 0 .06-.017.802.802 0 0 1 .652.035c.22.098.371.26.452.486a.868.868 0 0 1-.026.669.82.82 0 0 1-.496.443 1832.844 1832.844 0 0 1-1.346.469c-.237.07-.434.122-.591.157-.15.029-.286.043-.408.043Zm3.23-.174a.942.942 0 0 1-.842-.504.875.875 0 0 1-.504.044.849.849 0 0 1-.46-.278.826.826 0 0 1-.209-.626.813.813 0 0 1 .287-.599 5.19 5.19 0 0 0 .208-.182c.07-.076.145-.151.226-.226.139-.139.284-.281.434-.426a6.142 6.142 0 0 1 .73-.582c.093-.058.18-.107.261-.148a1.34 1.34 0 0 1 .886-.121c.33.092.559.304.686.634a1.09 1.09 0 0 1-.009.73l-.034.087c-.012.028-.026.06-.044.095a.89.89 0 0 1 .452.487.887.887 0 0 1-.026.677.821.821 0 0 1-.495.443l-.495.191-.383.131a2.861 2.861 0 0 1-.165.06l-.113.044a2.613 2.613 0 0 0-.182.043.767.767 0 0 1-.209.026Zm4.278.174a.955.955 0 0 1-.269-.043.821.821 0 0 1-.609-.539c-.092-.22-.089-.469.009-.747a2.82 2.82 0 0 1 .157-.348c.011-.023.023-.049.034-.078.018-.029.035-.055.052-.078-.127.07-.257.145-.391.226a8.138 8.138 0 0 1-.39.217 15.06 15.06 0 0 1-.678.4c-.22.116-.423.214-.608.295a.815.815 0 0 1-.66.017.812.812 0 0 1-.478-.46.82.82 0 0 1-.018-.66.817.817 0 0 1 .461-.478c.133-.064.298-.148.495-.252.197-.11.403-.229.617-.356.255-.151.524-.304.808-.46.284-.163.559-.302.825-.417.307-.151.594-.252.86-.304.185-.047.359-.073.521-.079.162-.005.316.012.461.052.318.093.535.29.651.591a.945.945 0 0 1 .035.643 2.902 2.902 0 0 1-.235.591l.053-.018a.497.497 0 0 0 .06-.017.803.803 0 0 1 .652.035c.22.098.371.26.452.486a.868.868 0 0 1-.026.669.82.82 0 0 1-.496.443 1832.844 1832.844 0 0 1-1.346.469c-.238.07-.434.122-.591.157-.15.029-.286.043-.408.043Zm9.34 0a.955.955 0 0 1-.269-.043.82.82 0 0 1-.608-.539c-.093-.22-.09-.469.009-.747.034-.098.086-.214.156-.348l.035-.078a.704.704 0 0 1 .052-.078c-.128.07-.258.145-.391.226a8.69 8.69 0 0 1-.391.217 15.06 15.06 0 0 1-.678.4c-.22.116-.422.214-.608.295a.815.815 0 0 1-.66.017.812.812 0 0 1-.478-.46.82.82 0 0 1-.017-.66.815.815 0 0 1 .46-.478c.133-.064.299-.148.495-.252.197-.11.403-.229.617-.356.255-.151.524-.304.808-.46.284-.163.559-.302.825-.417.307-.151.594-.252.86-.304.186-.047.359-.073.522-.079a1.54 1.54 0 0 1 .46.052c.319.093.536.29.652.591a.95.95 0 0 1 .034.643 2.958 2.958 0 0 1-.234.591l.052-.018a.579.579 0 0 0 .061-.017.8.8 0 0 1 .651.035c.22.098.371.26.452.486a.868.868 0 0 1-.026.669.821.821 0 0 1-.495.443l-.747.261c-.226.081-.426.15-.6.208-.237.07-.434.122-.59.157a2.182 2.182 0 0 1-.409.043Zm3.231-.174a.944.944 0 0 1-.843-.504.875.875 0 0 1-.504.044.852.852 0 0 1-.46-.278.826.826 0 0 1-.209-.626.813.813 0 0 1 .287-.599c.064-.052.133-.113.208-.182.07-.076.145-.151.226-.226.139-.139.284-.281.435-.426a6.138 6.138 0 0 1 .729-.582c.093-.058.18-.107.261-.148a1.34 1.34 0 0 1 .886-.121c.33.092.559.304.686.634a1.09 1.09 0 0 1-.008.73l-.035.087c-.012.028-.026.06-.044.095.209.099.36.261.452.487a.882.882 0 0 1-.026.677.816.816 0 0 1-.495.443l-.495.191-.382.131a2.861 2.861 0 0 1-.165.06l-.113.044a2.635 2.635 0 0 0-.183.043.765.765 0 0 1-.208.026Zm3.226.261a.82.82 0 0 1-.547-.191.837.837 0 0 1-.287-.417.884.884 0 0 1-.009-.504l.009-.017a.579.579 0 0 0 .017-.061 5.466 5.466 0 0 1-.868.434.845.845 0 0 1-.661-.026.844.844 0 0 1-.451-.486.818.818 0 0 1 .026-.669.846.846 0 0 1 .486-.452c.099-.035.264-.119.495-.252.238-.133.559-.362.965-.686.243-.197.443-.368.599-.513l.243-.226a.842.842 0 0 1 .834-.217.852.852 0 0 1 .539.417.865.865 0 0 1 .122.495 3.726 3.726 0 0 1-.096.582.895.895 0 0 1-.035.174c-.017.052-.034.11-.052.174a.874.874 0 0 1 .513.122.82.82 0 0 1 .356.399.819.819 0 0 1 .017.66.847.847 0 0 1-.46.478c-.249.11-.475.217-.678.322l-.478.251a1.935 1.935 0 0 1-.182.096.872.872 0 0 1-.417.113Zm2.03.565c-.064 0-.125-.003-.182-.009a.632.632 0 0 1-.122-.009 1.178 1.178 0 0 1-.434-.226.924.924 0 0 1-.287-.364.804.804 0 0 1-.078-.218 1.387 1.387 0 0 1 .008-.477l-.165-.113a.69.69 0 0 1-.13-.131.966.966 0 0 1-.208-.59c0-.139.031-.273.095-.4a.99.99 0 0 1 .243-.33l.165-.165c.076-.081.145-.162.209-.243l.174-.192.252-.269c.086-.092.167-.176.243-.252.092-.081.174-.15.243-.208a2.18 2.18 0 0 1 .182-.139 1.24 1.24 0 0 1 .939-.174c.336.087.559.275.669.565l-.009-.009c.023.052.04.104.052.156a.652.652 0 0 1 .035.148c.081-.087.153-.168.217-.243.064-.081.122-.154.174-.217l.121-.139a1.329 1.329 0 0 0 .044-.061c.133-.157.289-.267.469-.33a.915.915 0 0 1 .556-.035.856.856 0 0 1 .347.191c.11.093.2.2.27.321.081.186.115.345.104.478a1.659 1.659 0 0 1-.026.261.789.789 0 0 1-.026.078 1.579 1.579 0 0 1-.018.078l-.052.165-.008.026a.875.875 0 0 1 .347.096.77.77 0 0 1 .287.217.93.93 0 0 1 .165.304.94.94 0 0 1 .061.322c0 .289-.119.535-.357.738l-.043.043a7.331 7.331 0 0 1-.391.313 4.65 4.65 0 0 1-.426.296c-.341.202-.677.304-1.007.304-.139 0-.278-.021-.417-.061a.932.932 0 0 1-.522-.322l-.199.165a3.865 3.865 0 0 1-.218.148h.009c-.133.093-.26.171-.382.235a5.303 5.303 0 0 1-.348.165c-.092.04-.196.069-.312.087-.11.017-.215.026-.313.026Zm5.136-.826a.944.944 0 0 1-.843-.504.875.875 0 0 1-.504.044.852.852 0 0 1-.46-.278.825.825 0 0 1-.208-.626.812.812 0 0 1 .286-.599c.064-.052.133-.113.209-.182.069-.076.145-.151.226-.226.139-.139.283-.281.434-.426a5.941 5.941 0 0 1 .73-.582c.092-.058.179-.107.26-.148a1.34 1.34 0 0 1 .886-.121c.33.092.559.304.687.634a1.09 1.09 0 0 1-.009.73l-.035.087a1.4 1.4 0 0 1-.043.095.894.894 0 0 1 .452.487.883.883 0 0 1-.027.677.816.816 0 0 1-.495.443l-.495.191-.382.131a2.861 2.861 0 0 1-.165.06l-.113.044a2.635 2.635 0 0 0-.183.043.76.76 0 0 1-.208.026Zm2.392 0a.942.942 0 0 1-.842-.504.875.875 0 0 1-.504.044.855.855 0 0 1-.461-.278.83.83 0 0 1-.208-.626.813.813 0 0 1 .287-.599 5.19 5.19 0 0 0 .208-.182c.07-.076.145-.151.226-.226.139-.139.284-.281.434-.426a6.142 6.142 0 0 1 .73-.582c.093-.058.18-.107.261-.148a1.34 1.34 0 0 1 .886-.121c.33.092.559.304.686.634a1.09 1.09 0 0 1-.009.73l-.034.087c-.012.028-.026.06-.044.095a.89.89 0 0 1 .452.487.887.887 0 0 1-.026.677.821.821 0 0 1-.495.443l-.496.191-.382.131a2.861 2.861 0 0 1-.165.06l-.113.044a2.613 2.613 0 0 0-.182.043.767.767 0 0 1-.209.026Zm-82.101 9.174a.967.967 0 0 1-.27-.043.82.82 0 0 1-.608-.539c-.092-.22-.089-.469.009-.747.035-.098.087-.214.156-.348a.99.99 0 0 0 .035-.078.88.88 0 0 1 .052-.078c-.127.07-.258.145-.391.226a7.714 7.714 0 0 1-.391.217c-.231.145-.457.278-.677.4-.22.116-.423.214-.608.295a.817.817 0 0 1-.661.017.81.81 0 0 1-.477-.46.816.816 0 0 1-.018-.66.817.817 0 0 1 .461-.478c.133-.064.298-.148.495-.252.197-.11.402-.229.617-.356.254-.151.524-.304.808-.46.283-.163.558-.302.825-.417a3.47 3.47 0 0 1 .86-.304c.185-.047.359-.073.521-.079.162-.005.316.012.46.052.319.093.536.29.652.591a.95.95 0 0 1 .035.643 2.902 2.902 0 0 1-.235.591l.052-.018a.468.468 0 0 0 .061-.017.803.803 0 0 1 .652.035c.22.098.37.26.451.486a.859.859 0 0 1-.026.669.816.816 0 0 1-.495.443 1832.844 1832.844 0 0 1-1.346.469c-.238.07-.435.122-.591.157a2.18 2.18 0 0 1-.408.043Zm3.23-.174a.944.944 0 0 1-.843-.504.872.872 0 0 1-.503.044.855.855 0 0 1-.461-.278.825.825 0 0 1-.208-.626.812.812 0 0 1 .286-.599c.064-.052.134-.113.209-.182.069-.076.145-.151.226-.226.139-.139.284-.281.434-.426a5.941 5.941 0 0 1 .73-.582c.092-.058.179-.107.26-.148.302-.144.597-.185.887-.121a.99.99 0 0 1 .686.634 1.09 1.09 0 0 1-.009.73l-.035.087a1.4 1.4 0 0 1-.043.095.894.894 0 0 1 .452.487.887.887 0 0 1-.026.677.82.82 0 0 1-.496.443l-.495.191-.382.131a2.861 2.861 0 0 1-.165.06l-.113.044a2.485 2.485 0 0 0-.182.043.772.772 0 0 1-.209.026Zm3.226.261a.821.821 0 0 1-.547-.191.875.875 0 0 1-.295-.921l.008-.017a.95.95 0 0 0 .018-.061 5.472 5.472 0 0 1-.869.434.842.842 0 0 1-.66-.026.846.846 0 0 1-.452-.486.818.818 0 0 1 .026-.669.848.848 0 0 1 .487-.452 3.69 3.69 0 0 0 .495-.252c.237-.133.559-.362.964-.686.243-.197.443-.368.6-.513l.243-.226a.84.84 0 0 1 .834-.217.85.85 0 0 1 .538.417.857.857 0 0 1 .122.495 3.612 3.612 0 0 1-.096.582.892.892 0 0 1-.034.174c-.018.052-.035.11-.052.174a.869.869 0 0 1 .512.122.82.82 0 0 1 .356.399.815.815 0 0 1 .018.66.849.849 0 0 1-.461.478c-.249.11-.475.217-.677.322l-.478.251a2.011 2.011 0 0 1-.183.096.872.872 0 0 1-.417.113Zm3.377 0a.82.82 0 0 1-.547-.191.837.837 0 0 1-.287-.417.884.884 0 0 1-.009-.504l.009-.017.017-.061a5.466 5.466 0 0 1-.868.434.845.845 0 0 1-.661-.026.844.844 0 0 1-.451-.486.814.814 0 0 1 .026-.669.846.846 0 0 1 .486-.452c.099-.035.264-.119.495-.252.238-.133.559-.362.965-.686.243-.197.443-.368.599-.513l.243-.226a.842.842 0 0 1 .834-.217.852.852 0 0 1 .539.417.863.863 0 0 1 .121.495 3.599 3.599 0 0 1-.095.582.895.895 0 0 1-.035.174c-.017.052-.035.11-.052.174a.874.874 0 0 1 .513.122c.162.092.28.225.356.399a.819.819 0 0 1 .017.66.847.847 0 0 1-.46.478c-.249.11-.475.217-.678.322l-.478.251a2.097 2.097 0 0 1-.182.096.872.872 0 0 1-.417.113Zm2.03.565a1.78 1.78 0 0 1-.183-.009.627.627 0 0 1-.121-.009 1.19 1.19 0 0 1-.435-.226.922.922 0 0 1-.286-.364.804.804 0 0 1-.078-.218 1.387 1.387 0 0 1 .008-.477l-.165-.113a.69.69 0 0 1-.13-.131.967.967 0 0 1-.209-.59.88.88 0 0 1 .096-.4.99.99 0 0 1 .243-.33l.165-.165c.076-.081.145-.162.209-.243l.173-.192c.082-.086.166-.176.252-.269.087-.092.168-.176.244-.252.092-.081.173-.15.243-.208a2.18 2.18 0 0 1 .182-.139 1.24 1.24 0 0 1 .939-.174c.335.087.558.275.668.565l-.008-.009c.023.052.04.104.052.156a.652.652 0 0 1 .035.148c.081-.087.153-.168.217-.243.063-.081.121-.154.174-.217l.121-.139a1.074 1.074 0 0 1 .513-.391.915.915 0 0 1 .556-.035.856.856 0 0 1 .347.191c.11.093.2.2.269.321.082.186.116.345.105.478a1.659 1.659 0 0 1-.026.261.789.789 0 0 1-.026.078 1.579 1.579 0 0 1-.018.078l-.052.165-.009.026a.875.875 0 0 1 .348.096.77.77 0 0 1 .287.217.93.93 0 0 1 .165.304.936.936 0 0 1-.296 1.06l-.043.043a7.331 7.331 0 0 1-.391.313 4.65 4.65 0 0 1-.426.296c-.341.202-.677.304-1.007.304-.139 0-.278-.021-.417-.061a.932.932 0 0 1-.522-.322l-.2.165a3.817 3.817 0 0 1-.217.148h.009a3.638 3.638 0 0 1-.73.4c-.092.04-.197.069-.312.087-.11.017-.215.026-.313.026Zm7.021-.652a.955.955 0 0 1-.269-.043.818.818 0 0 1-.608-.539c-.093-.22-.09-.469.008-.747a2.82 2.82 0 0 1 .157-.348c.011-.023.023-.049.034-.078.018-.029.035-.055.052-.078-.127.07-.257.145-.39.226a8.69 8.69 0 0 1-.391.217 15.06 15.06 0 0 1-.678.4c-.22.116-.423.214-.608.295a.815.815 0 0 1-.66.017.812.812 0 0 1-.478-.46.816.816 0 0 1-.017-.66.812.812 0 0 1 .46-.478c.133-.064.298-.148.495-.252.197-.11.403-.229.617-.356.255-.151.524-.304.808-.46.284-.163.559-.302.825-.417.307-.151.594-.252.86-.304.185-.047.359-.073.521-.079.163-.005.316.012.461.052.318.093.535.29.651.591a.945.945 0 0 1 .035.643 2.958 2.958 0 0 1-.234.591l.052-.018a.497.497 0 0 0 .06-.017.802.802 0 0 1 .652.035c.22.098.371.26.452.486a.868.868 0 0 1-.026.669.82.82 0 0 1-.496.443 1832.844 1832.844 0 0 1-1.346.469c-.237.07-.434.122-.591.157-.15.029-.286.043-.408.043Zm2.718.652a1.78 1.78 0 0 1-.183-.009.627.627 0 0 1-.121-.009 1.19 1.19 0 0 1-.435-.226.93.93 0 0 1-.286-.364.804.804 0 0 1-.078-.218 1.387 1.387 0 0 1 .008-.477l-.165-.113a.69.69 0 0 1-.13-.131.967.967 0 0 1-.209-.59.88.88 0 0 1 .096-.4.99.99 0 0 1 .243-.33l.165-.165c.076-.081.145-.162.209-.243l.174-.192.251-.269c.087-.092.168-.176.244-.252.092-.081.173-.15.243-.208a2.18 2.18 0 0 1 .182-.139 1.24 1.24 0 0 1 .939-.174c.335.087.558.275.668.565l-.008-.009c.023.052.04.104.052.156a.652.652 0 0 1 .035.148c.081-.087.153-.168.217-.243.064-.081.121-.154.174-.217l.121-.139a1.074 1.074 0 0 1 .513-.391.915.915 0 0 1 .556-.035.856.856 0 0 1 .347.191c.11.093.2.2.27.321.081.186.115.345.104.478a1.659 1.659 0 0 1-.026.261.789.789 0 0 1-.026.078 1.579 1.579 0 0 1-.018.078l-.052.165-.009.026a.875.875 0 0 1 .348.096.77.77 0 0 1 .287.217.93.93 0 0 1 .165.304.936.936 0 0 1-.296 1.06l-.043.043a7.331 7.331 0 0 1-.391.313 4.65 4.65 0 0 1-.426.296c-.341.202-.677.304-1.007.304-.139 0-.278-.021-.417-.061a.932.932 0 0 1-.522-.322l-.199.165a4.267 4.267 0 0 1-.218.148h.009a3.638 3.638 0 0 1-.73.4c-.092.04-.197.069-.312.087-.11.017-.215.026-.313.026Zm5.136-.826a.944.944 0 0 1-.843-.504.875.875 0 0 1-.504.044.852.852 0 0 1-.46-.278.825.825 0 0 1-.208-.626.812.812 0 0 1 .286-.599c.064-.052.133-.113.209-.182a3.44 3.44 0 0 1 .226-.226c.139-.139.283-.281.434-.426a5.941 5.941 0 0 1 .73-.582c.092-.058.179-.107.26-.148a1.34 1.34 0 0 1 .886-.121c.33.092.559.304.687.634a1.09 1.09 0 0 1-.009.73l-.035.087a1.4 1.4 0 0 1-.043.095.878.878 0 0 1 .425 1.164.816.816 0 0 1-.495.443l-.495.191-.382.131a2.861 2.861 0 0 1-.165.06l-.113.044a2.635 2.635 0 0 0-.183.043.76.76 0 0 1-.208.026Zm8.502.174a.955.955 0 0 1-.269-.043.82.82 0 0 1-.608-.539c-.093-.22-.09-.469.008-.747a2.82 2.82 0 0 1 .157-.348l.035-.078a.704.704 0 0 1 .052-.078c-.128.07-.258.145-.391.226a8.69 8.69 0 0 1-.391.217 15.06 15.06 0 0 1-.678.4c-.22.116-.422.214-.608.295a.815.815 0 0 1-.66.017.812.812 0 0 1-.478-.46.82.82 0 0 1-.017-.66.815.815 0 0 1 .46-.478c.133-.064.298-.148.495-.252.197-.11.403-.229.617-.356.255-.151.524-.304.808-.46.284-.163.559-.302.825-.417.307-.151.594-.252.86-.304.186-.047.359-.073.522-.079a1.54 1.54 0 0 1 .46.052c.319.093.536.29.652.591a.95.95 0 0 1 .034.643 2.958 2.958 0 0 1-.234.591l.052-.018a.579.579 0 0 0 .061-.017.8.8 0 0 1 .651.035c.22.098.371.26.452.486a.868.868 0 0 1-.026.669.821.821 0 0 1-.495.443l-.747.261c-.226.081-.426.15-.6.208-.237.07-.434.122-.591.157-.15.029-.286.043-.408.043Zm2.718.652a1.76 1.76 0 0 1-.182-.009.639.639 0 0 1-.122-.009 1.178 1.178 0 0 1-.434-.226.924.924 0 0 1-.287-.364.804.804 0 0 1-.078-.218 1.312 1.312 0 0 1 .009-.477l-.166-.113a.722.722 0 0 1-.13-.131.966.966 0 0 1-.208-.59c0-.139.032-.273.095-.4a.99.99 0 0 1 .243-.33l.166-.165c.075-.081.144-.162.208-.243l.174-.192.252-.269c.087-.092.168-.176.243-.252.093-.081.174-.15.243-.208.07-.058.13-.104.183-.139.301-.186.613-.243.938-.174.336.087.559.275.669.565l-.009-.009a.794.794 0 0 1 .052.156.603.603 0 0 1 .035.148c.081-.087.153-.168.217-.243.064-.081.122-.154.174-.217l.121-.139a1.329 1.329 0 0 0 .044-.061c.133-.157.289-.267.469-.33a.915.915 0 0 1 .556-.035.856.856 0 0 1 .347.191c.11.093.2.2.27.321.081.186.116.345.104.478a1.659 1.659 0 0 1-.026.261.789.789 0 0 1-.026.078 1.579 1.579 0 0 1-.018.078l-.052.165-.008.026a.875.875 0 0 1 .347.096.762.762 0 0 1 .287.217.93.93 0 0 1 .165.304.94.94 0 0 1 .061.322.939.939 0 0 1-.356.738l-.044.043a7.331 7.331 0 0 1-.391.313 4.65 4.65 0 0 1-.426.296c-.341.202-.677.304-1.007.304-.139 0-.278-.021-.417-.061a.942.942 0 0 1-.521-.322l-.2.165a4.213 4.213 0 0 1-.217.148h.008c-.133.093-.26.171-.382.235a5.289 5.289 0 0 1-.347.165 1.29 1.29 0 0 1-.313.087c-.11.017-.214.026-.313.026Zm5.136-.826a.94.94 0 0 1-.842-.504.876.876 0 0 1-.504.044.855.855 0 0 1-.461-.278.825.825 0 0 1-.208-.626.812.812 0 0 1 .286-.599c.064-.052.134-.113.209-.182.069-.076.145-.151.226-.226.139-.139.284-.281.434-.426a5.941 5.941 0 0 1 .73-.582 3.37 3.37 0 0 1 .26-.148c.302-.144.597-.185.887-.121a.99.99 0 0 1 .686.634 1.09 1.09 0 0 1-.009.73l-.035.087a1.4 1.4 0 0 1-.043.095.894.894 0 0 1 .452.487.887.887 0 0 1-.026.677.82.82 0 0 1-.496.443l-.495.191-.382.131a2.861 2.861 0 0 1-.165.06l-.113.044a2.485 2.485 0 0 0-.182.043.772.772 0 0 1-.209.026Zm2.393 0a.944.944 0 0 1-.843-.504.875.875 0 0 1-.504.044.849.849 0 0 1-.46-.278.826.826 0 0 1-.209-.626.813.813 0 0 1 .287-.599 5.19 5.19 0 0 0 .208-.182c.07-.076.145-.151.226-.226.139-.139.284-.281.434-.426a6.142 6.142 0 0 1 .73-.582c.093-.058.18-.107.261-.148a1.34 1.34 0 0 1 .886-.121c.33.092.559.304.686.634a1.09 1.09 0 0 1-.009.73l-.034.087c-.012.028-.026.06-.044.095a.89.89 0 0 1 .452.487.887.887 0 0 1-.026.677.818.818 0 0 1-.495.443l-.495.191-.383.131a2.861 2.861 0 0 1-.165.06l-.113.044a2.754 2.754 0 0 0-.182.043.765.765 0 0 1-.208.026Zm2.392 0a.944.944 0 0 1-.843-.504.875.875 0 0 1-.504.044.852.852 0 0 1-.46-.278.83.83 0 0 1-.209-.626.817.817 0 0 1 .287-.599c.064-.052.133-.113.209-.182.069-.076.144-.151.225-.226.139-.139.284-.281.435-.426a5.941 5.941 0 0 1 .73-.582c.092-.058.179-.107.26-.148a1.34 1.34 0 0 1 .886-.121c.33.092.559.304.687.634a1.09 1.09 0 0 1-.009.73l-.035.087a1.4 1.4 0 0 1-.043.095.889.889 0 0 1 .451.487.882.882 0 0 1-.026.677.816.816 0 0 1-.495.443l-.495.191-.382.131a2.861 2.861 0 0 1-.165.06l-.113.044a2.635 2.635 0 0 0-.183.043.76.76 0 0 1-.208.026Zm2.392 0a.942.942 0 0 1-.842-.504.876.876 0 0 1-.504.044.855.855 0 0 1-.461-.278.825.825 0 0 1-.208-.626.812.812 0 0 1 .286-.599c.064-.052.134-.113.209-.182.069-.076.145-.151.226-.226.139-.139.284-.281.434-.426a6.142 6.142 0 0 1 .73-.582 3.2 3.2 0 0 1 .261-.148 1.34 1.34 0 0 1 .886-.121.99.99 0 0 1 .686.634 1.09 1.09 0 0 1-.009.73l-.035.087a1.4 1.4 0 0 1-.043.095.894.894 0 0 1 .452.487.887.887 0 0 1-.026.677.821.821 0 0 1-.495.443l-.496.191-.382.131a2.861 2.861 0 0 1-.165.06l-.113.044a2.485 2.485 0 0 0-.182.043.772.772 0 0 1-.209.026Zm3.227.261a.822.822 0 0 1-.548-.191.876.876 0 0 1-.295-.921l.009-.017.017-.061a5.472 5.472 0 0 1-.869.434.842.842 0 0 1-.66-.026.846.846 0 0 1-.452-.486.818.818 0 0 1 .026-.669.85.85 0 0 1 .487-.452 3.69 3.69 0 0 0 .495-.252c.237-.133.559-.362.964-.686.243-.197.443-.368.6-.513l.243-.226a.84.84 0 0 1 .834-.217.85.85 0 0 1 .538.417.857.857 0 0 1 .122.495 3.713 3.713 0 0 1-.095.582.976.976 0 0 1-.035.174c-.018.052-.035.11-.052.174a.869.869 0 0 1 .512.122.82.82 0 0 1 .356.399.815.815 0 0 1 .018.66.849.849 0 0 1-.461.478c-.249.11-.475.217-.677.322l-.478.251a2.011 2.011 0 0 1-.183.096.865.865 0 0 1-.416.113Zm2.542-.261a.944.944 0 0 1-.843-.504.875.875 0 0 1-.504.044.852.852 0 0 1-.46-.278.825.825 0 0 1-.208-.626.812.812 0 0 1 .286-.599c.064-.052.133-.113.209-.182.069-.076.145-.151.226-.226.139-.139.283-.281.434-.426a5.941 5.941 0 0 1 .73-.582c.092-.058.179-.107.26-.148a1.34 1.34 0 0 1 .886-.121c.33.092.559.304.687.634a1.09 1.09 0 0 1-.009.73l-.035.087a1.4 1.4 0 0 1-.043.095.894.894 0 0 1 .452.487.883.883 0 0 1-.027.677.816.816 0 0 1-.495.443l-.495.191-.382.131a2.861 2.861 0 0 1-.165.06l-.113.044a2.635 2.635 0 0 0-.183.043.76.76 0 0 1-.208.026Zm7.451.261a.82.82 0 0 1-.547-.191.837.837 0 0 1-.287-.417.884.884 0 0 1-.009-.504l.009-.017a.95.95 0 0 0 .018-.061 5.515 5.515 0 0 1-.869.434.842.842 0 0 1-.66-.026.846.846 0 0 1-.452-.486.818.818 0 0 1 .026-.669.846.846 0 0 1 .486-.452c.099-.035.264-.119.496-.252.237-.133.558-.362.964-.686.243-.197.443-.368.599-.513l.243-.226a.842.842 0 0 1 .834-.217.852.852 0 0 1 .539.417.865.865 0 0 1 .122.495 3.726 3.726 0 0 1-.096.582.895.895 0 0 1-.035.174c-.017.052-.034.11-.052.174a.872.872 0 0 1 .513.122.82.82 0 0 1 .356.399.819.819 0 0 1 .017.66.847.847 0 0 1-.46.478c-.249.11-.475.217-.678.322l-.477.251a2.011 2.011 0 0 1-.183.096.872.872 0 0 1-.417.113Zm2.543-.261a.944.944 0 0 1-.843-.504.875.875 0 0 1-.504.044.852.852 0 0 1-.46-.278.826.826 0 0 1-.209-.626.813.813 0 0 1 .287-.599c.064-.052.133-.113.208-.182.07-.076.145-.151.226-.226.139-.139.284-.281.435-.426a5.936 5.936 0 0 1 .729-.582c.093-.058.18-.107.261-.148a1.34 1.34 0 0 1 .886-.121c.33.092.559.304.686.634.081.232.078.475-.008.73l-.035.087c-.012.028-.026.06-.044.095a.89.89 0 0 1 .452.487.887.887 0 0 1-.026.677.816.816 0 0 1-.495.443l-.495.191-.383.131a2.405 2.405 0 0 1-.165.06l-.113.044a2.754 2.754 0 0 0-.182.043.765.765 0 0 1-.208.026Zm2.392 0a.944.944 0 0 1-.843-.504.875.875 0 0 1-.504.044.852.852 0 0 1-.46-.278.825.825 0 0 1-.208-.626.812.812 0 0 1 .286-.599c.064-.052.133-.113.209-.182a3.44 3.44 0 0 1 .226-.226c.139-.139.283-.281.434-.426a5.941 5.941 0 0 1 .73-.582c.092-.058.179-.107.26-.148a1.34 1.34 0 0 1 .886-.121c.33.092.559.304.687.634a1.09 1.09 0 0 1-.009.73l-.035.087a1.4 1.4 0 0 1-.043.095.878.878 0 0 1 .425 1.164.816.816 0 0 1-.495.443l-.495.191-.382.131a2.861 2.861 0 0 1-.165.06l-.113.044a2.635 2.635 0 0 0-.183.043.76.76 0 0 1-.208.026Zm8.502.174a.955.955 0 0 1-.269-.043.82.82 0 0 1-.608-.539c-.093-.22-.09-.469.008-.747a2.82 2.82 0 0 1 .157-.348l.035-.078a.704.704 0 0 1 .052-.078c-.128.07-.258.145-.391.226a8.69 8.69 0 0 1-.391.217 15.06 15.06 0 0 1-.678.4c-.22.116-.423.214-.608.295a.815.815 0 0 1-.66.017.812.812 0 0 1-.478-.46.82.82 0 0 1-.017-.66.815.815 0 0 1 .46-.478c.133-.064.298-.148.495-.252.197-.11.403-.229.617-.356.255-.151.524-.304.808-.46.284-.163.559-.302.825-.417.307-.151.594-.252.86-.304.186-.047.359-.073.522-.079a1.54 1.54 0 0 1 .46.052c.319.093.536.29.652.591a.95.95 0 0 1 .034.643 2.958 2.958 0 0 1-.234.591l.052-.018a.579.579 0 0 0 .061-.017.8.8 0 0 1 .651.035c.22.098.371.26.452.486a.868.868 0 0 1-.026.669.821.821 0 0 1-.495.443l-.747.261c-.226.081-.426.15-.6.208-.237.07-.434.122-.591.157-.15.029-.286.043-.408.043Zm4.065.087a.822.822 0 0 1-.548-.191.876.876 0 0 1-.295-.921l.009-.017.017-.061a5.472 5.472 0 0 1-.869.434.842.842 0 0 1-.66-.026.846.846 0 0 1-.452-.486.818.818 0 0 1 .026-.669.85.85 0 0 1 .487-.452 3.69 3.69 0 0 0 .495-.252c.237-.133.559-.362.964-.686.244-.197.443-.368.6-.513l.243-.226a.84.84 0 0 1 .834-.217.854.854 0 0 1 .539.417.863.863 0 0 1 .121.495 3.599 3.599 0 0 1-.095.582.976.976 0 0 1-.035.174c-.018.052-.035.11-.052.174a.869.869 0 0 1 .512.122.82.82 0 0 1 .356.399.815.815 0 0 1 .018.66.849.849 0 0 1-.461.478c-.249.11-.475.217-.677.322l-.478.251a2.291 2.291 0 0 1-.182.096.872.872 0 0 1-.417.113Zm4.427-.087a.955.955 0 0 1-.269-.043.818.818 0 0 1-.608-.539c-.093-.22-.09-.469.008-.747a2.82 2.82 0 0 1 .157-.348l.035-.078a.704.704 0 0 1 .052-.078c-.128.07-.258.145-.391.226a8.69 8.69 0 0 1-.391.217 15.06 15.06 0 0 1-.678.4c-.22.116-.423.214-.608.295a.815.815 0 0 1-.66.017.812.812 0 0 1-.478-.46.82.82 0 0 1-.017-.66.815.815 0 0 1 .46-.478c.133-.064.298-.148.495-.252.197-.11.403-.229.617-.356.255-.151.524-.304.808-.46.284-.163.559-.302.825-.417.307-.151.594-.252.86-.304.186-.047.359-.073.522-.079a1.54 1.54 0 0 1 .46.052c.319.093.536.29.652.591a.95.95 0 0 1 .034.643 2.958 2.958 0 0 1-.234.591l.052-.018a.579.579 0 0 0 .061-.017.8.8 0 0 1 .651.035c.22.098.371.26.452.486a.868.868 0 0 1-.026.669.821.821 0 0 1-.495.443l-.747.261c-.226.081-.426.15-.6.208-.237.07-.434.122-.591.157-.15.029-.286.043-.408.043Zm4.065.087a.822.822 0 0 1-.548-.191.876.876 0 0 1-.295-.921l.009-.017.017-.061a5.472 5.472 0 0 1-.869.434.842.842 0 0 1-.66-.026.846.846 0 0 1-.452-.486.818.818 0 0 1 .026-.669.85.85 0 0 1 .487-.452 3.69 3.69 0 0 0 .495-.252c.237-.133.559-.362.964-.686.244-.197.443-.368.6-.513l.243-.226a.84.84 0 0 1 .834-.217.854.854 0 0 1 .539.417.863.863 0 0 1 .121.495 3.599 3.599 0 0 1-.095.582.976.976 0 0 1-.035.174c-.018.052-.035.11-.052.174a.869.869 0 0 1 .512.122.82.82 0 0 1 .356.399.815.815 0 0 1 .018.66.849.849 0 0 1-.461.478c-.249.11-.475.217-.677.322l-.478.251a2.291 2.291 0 0 1-.182.096.872.872 0 0 1-.417.113Zm3.376 0a.82.82 0 0 1-.547-.191.837.837 0 0 1-.287-.417.884.884 0 0 1-.009-.504l.009-.017a.579.579 0 0 0 .017-.061 5.466 5.466 0 0 1-.868.434.845.845 0 0 1-.661-.026.844.844 0 0 1-.451-.486.818.818 0 0 1 .026-.669.846.846 0 0 1 .486-.452c.099-.035.264-.119.495-.252.238-.133.559-.362.965-.686.243-.197.443-.368.599-.513l.243-.226a.842.842 0 0 1 .834-.217.852.852 0 0 1 .539.417.865.865 0 0 1 .122.495 3.726 3.726 0 0 1-.096.582.895.895 0 0 1-.035.174c-.017.052-.034.11-.052.174a.874.874 0 0 1 .513.122.82.82 0 0 1 .356.399.819.819 0 0 1 .017.66.847.847 0 0 1-.46.478c-.249.11-.475.217-.678.322l-.478.251a1.935 1.935 0 0 1-.182.096.872.872 0 0 1-.417.113Zm3.376 0a.821.821 0 0 1-.547-.191.875.875 0 0 1-.295-.921l.008-.017a.95.95 0 0 0 .018-.061 5.472 5.472 0 0 1-.869.434.842.842 0 0 1-.66-.026.846.846 0 0 1-.452-.486.818.818 0 0 1 .026-.669.85.85 0 0 1 .487-.452 3.69 3.69 0 0 0 .495-.252c.237-.133.559-.362.964-.686.243-.197.443-.368.6-.513l.243-.226a.84.84 0 0 1 .834-.217.85.85 0 0 1 .538.417.857.857 0 0 1 .122.495 3.612 3.612 0 0 1-.096.582.892.892 0 0 1-.034.174c-.018.052-.035.11-.052.174a.869.869 0 0 1 .512.122.82.82 0 0 1 .356.399.815.815 0 0 1 .018.66.849.849 0 0 1-.461.478c-.249.11-.475.217-.677.322l-.478.251a2.011 2.011 0 0 1-.183.096.872.872 0 0 1-.417.113Z" fill="#DA9B48"/><rect x="219.426" y="154.479" width="53.752" height="9.773" rx="4.886" fill="#DA9B48"/><path d="M226.544 161.935a1.55 1.55 0 0 1-.171-.009.568.568 0 0 1-.114-.008 1.122 1.122 0 0 1-.407-.211.873.873 0 0 1-.269-.343.74.74 0 0 1-.073-.203 1.17 1.17 0 0 1 .008-.448l-.155-.106a.635.635 0 0 1-.122-.122.91.91 0 0 1-.196-.554c0-.13.03-.255.09-.375a.914.914 0 0 1 .228-.309l.155-.155c.07-.076.135-.152.195-.228l.163-.179.236-.252c.082-.087.158-.166.228-.237.087-.076.163-.141.228-.195a1.95 1.95 0 0 1 .171-.13c.283-.174.576-.228.88-.163.315.081.524.258.627.529l-.008-.008a.769.769 0 0 1 .049.147.556.556 0 0 1 .032.138c.076-.081.144-.157.204-.228l.163-.204.114-.13a.127.127 0 0 0 .024-.032l.017-.025c.124-.147.271-.25.439-.309a.859.859 0 0 1 .522-.033.803.803 0 0 1 .325.179c.103.087.188.188.253.302a.952.952 0 0 1 .098.447c-.006.12-.014.201-.025.245a.474.474 0 0 1-.024.073c-.006.027-.011.052-.017.073l-.048.155-.009.025a.81.81 0 0 1 .326.089.723.723 0 0 1 .269.204c.07.087.122.182.155.285a.865.865 0 0 1 .057.301.88.88 0 0 1-.334.692l-.041.041a6.796 6.796 0 0 1-.366.293c-.125.098-.258.19-.4.277-.32.19-.635.285-.944.285-.131 0-.261-.019-.391-.057a.846.846 0 0 1-.277-.114 1.008 1.008 0 0 1-.212-.187l-.187.155c-.06.043-.128.089-.204.138h.008a3.31 3.31 0 0 1-.358.22c-.114.06-.223.111-.326.155a1.142 1.142 0 0 1-.293.081 1.922 1.922 0 0 1-.293.025Zm5.597-.53a.77.77 0 0 1-.513-.179.818.818 0 0 1-.277-.863l.008-.017c.005-.016.011-.035.016-.057-.298.18-.57.315-.814.408a.789.789 0 0 1-.619-.025.794.794 0 0 1-.424-.456.766.766 0 0 1 .025-.627.796.796 0 0 1 .456-.423c.092-.033.247-.112.464-.237.223-.124.524-.339.904-.643.228-.185.415-.345.562-.481l.228-.211a.787.787 0 0 1 .782-.204c.223.06.391.19.505.391a.807.807 0 0 1 .114.464c-.011.158-.041.34-.09.546a.854.854 0 0 1-.032.163 2.337 2.337 0 0 0-.049.163.816.816 0 0 1 .48.114.77.77 0 0 1 .334.374.766.766 0 0 1 .017.619.795.795 0 0 1-.432.448c-.234.103-.445.204-.635.302l-.448.236a2.248 2.248 0 0 1-.171.089.813.813 0 0 1-.391.106Zm3.165 0a.77.77 0 0 1-.513-.179.826.826 0 0 1-.277-.863l.008-.017c.006-.016.011-.035.017-.057-.299.18-.57.315-.815.408a.79.79 0 0 1-.619-.025.793.793 0 0 1-.423-.456.762.762 0 0 1 .024-.627.796.796 0 0 1 .456-.423 3.38 3.38 0 0 0 .464-.237c.223-.124.524-.339.904-.643.229-.185.416-.345.562-.481l.228-.211a.787.787 0 0 1 .782-.204c.223.06.391.19.505.391a.807.807 0 0 1 .114.464c-.011.158-.04.34-.089.546a.942.942 0 0 1-.033.163 4.362 4.362 0 0 0-.049.163.82.82 0 0 1 .481.114.776.776 0 0 1 .334.374.77.77 0 0 1 .016.619.79.79 0 0 1-.432.448c-.233.103-.445.204-.635.302l-.448.236a1.868 1.868 0 0 1-.171.089.807.807 0 0 1-.391.106Zm4.151-.081a.904.904 0 0 1-.252-.041.769.769 0 0 1-.571-.505c-.086-.206-.084-.44.009-.7a2.48 2.48 0 0 1 .146-.326c.011-.022.022-.046.033-.073a.73.73 0 0 1 .049-.074c-.12.066-.242.136-.367.212a7.172 7.172 0 0 1-.366.204c-.217.135-.429.26-.636.374a8.511 8.511 0 0 1-.57.277.766.766 0 0 1-.619.017.77.77 0 0 1-.448-.432.771.771 0 0 1-.016-.619.766.766 0 0 1 .432-.448c.125-.06.279-.138.464-.236.185-.103.377-.215.578-.334.239-.141.492-.285.758-.432.266-.152.524-.282.773-.391.288-.141.557-.236.807-.285.173-.043.336-.068.488-.073.152-.005.296.011.432.049a.882.882 0 0 1 .611.554.887.887 0 0 1 .032.602c-.054.196-.127.38-.22.554l.049-.016.057-.016a.75.75 0 0 1 .611.032.764.764 0 0 1 .424.456.812.812 0 0 1-.025.627.766.766 0 0 1-.464.416l-.7.244c-.212.076-.399.141-.562.195a8.91 8.91 0 0 1-.554.147 2.06 2.06 0 0 1-.383.041Zm2.548.611a1.55 1.55 0 0 1-.171-.009.568.568 0 0 1-.114-.008 1.122 1.122 0 0 1-.407-.211.873.873 0 0 1-.269-.343.774.774 0 0 1-.09-.399c0-.086.009-.171.025-.252l-.155-.106a.635.635 0 0 1-.122-.122.909.909 0 0 1-.195-.554c0-.13.029-.255.089-.375a.914.914 0 0 1 .228-.309l.155-.155a3.29 3.29 0 0 0 .195-.228l.163-.179.236-.252c.082-.087.158-.166.228-.237.087-.076.163-.141.229-.195a1.95 1.95 0 0 1 .171-.13 1.16 1.16 0 0 1 .879-.163c.315.081.524.258.627.529l-.008-.008a.769.769 0 0 1 .049.147.605.605 0 0 1 .033.138 5.85 5.85 0 0 0 .203-.228l.163-.204.114-.13a.127.127 0 0 0 .024-.032l.017-.025c.125-.147.271-.25.44-.309a.855.855 0 0 1 .521-.033.813.813 0 0 1 .326.179c.103.087.187.188.252.302a.94.94 0 0 1 .098.447c-.006.12-.014.201-.025.245a.474.474 0 0 1-.024.073l-.016.073-.049.155-.008.025a.81.81 0 0 1 .325.089.715.715 0 0 1 .269.204.863.863 0 0 1 .155.285.876.876 0 0 1-.277.993l-.041.041a6.796 6.796 0 0 1-.366.293c-.125.098-.258.19-.399.277-.321.19-.636.285-.945.285a1.39 1.39 0 0 1-.391-.057.846.846 0 0 1-.277-.114 1.034 1.034 0 0 1-.212-.187l-.187.155c-.06.043-.128.089-.204.138h.009c-.125.087-.245.16-.359.22-.114.06-.222.111-.326.155a1.13 1.13 0 0 1-.293.081 1.922 1.922 0 0 1-.293.025Zm4.335 0a1.55 1.55 0 0 1-.171-.009.568.568 0 0 1-.114-.008 1.134 1.134 0 0 1-.408-.211.87.87 0 0 1-.268-.343.78.78 0 0 1-.09-.399c0-.086.008-.171.024-.252l-.154-.106a.607.607 0 0 1-.122-.122.904.904 0 0 1-.196-.554c0-.13.03-.255.09-.375a.914.914 0 0 1 .228-.309l.154-.155c.071-.076.136-.152.196-.228l.163-.179.236-.252c.081-.087.157-.166.228-.237.087-.076.163-.141.228-.195a1.95 1.95 0 0 1 .171-.13c.282-.174.576-.228.88-.163.315.081.524.258.627.529l-.008-.008a.764.764 0 0 1 .048.147.516.516 0 0 1 .033.138c.076-.081.144-.157.204-.228.059-.076.114-.144.163-.204l.114-.13a.157.157 0 0 0 .024-.032l.016-.025c.125-.147.272-.25.44-.309a.856.856 0 0 1 .521-.033c.12.033.228.092.326.179.103.087.187.188.253.302a.938.938 0 0 1 .097.447c-.005.12-.013.201-.024.245a.636.636 0 0 1-.025.073.821.821 0 0 1-.016.073l-.049.155-.008.025a.813.813 0 0 1 .326.089.732.732 0 0 1 .269.204.86.86 0 0 1 .154.285.876.876 0 0 1-.277.993l-.04.041a6.455 6.455 0 0 1-.367.293c-.125.098-.258.19-.399.277-.32.19-.635.285-.945.285-.13 0-.26-.019-.39-.057a.846.846 0 0 1-.277-.114 1.008 1.008 0 0 1-.212-.187l-.187.155c-.06.043-.128.089-.204.138h.008a3.41 3.41 0 0 1-.358.22c-.114.06-.223.111-.326.155a1.153 1.153 0 0 1-.293.081 1.922 1.922 0 0 1-.293.025Zm6.582-.611a.904.904 0 0 1-.252-.041.769.769 0 0 1-.571-.505c-.086-.206-.084-.44.009-.7a2.48 2.48 0 0 1 .146-.326c.011-.022.022-.046.033-.073a.73.73 0 0 1 .049-.074c-.12.066-.242.136-.367.212a7.626 7.626 0 0 1-.366.204c-.218.135-.429.26-.636.374a8.511 8.511 0 0 1-.57.277.766.766 0 0 1-.619.017.77.77 0 0 1-.448-.432.771.771 0 0 1-.016-.619.764.764 0 0 1 .432-.448c.125-.06.279-.138.464-.236.185-.103.377-.215.578-.334.239-.141.492-.285.758-.432.266-.152.524-.282.773-.391.288-.141.557-.236.807-.285.173-.043.336-.068.488-.073.152-.005.296.011.432.049a.884.884 0 0 1 .611.554.887.887 0 0 1 .032.602c-.054.196-.127.38-.22.554l.049-.016.057-.016a.75.75 0 0 1 .611.032.764.764 0 0 1 .424.456.812.812 0 0 1-.025.627.766.766 0 0 1-.464.416l-.7.244c-.212.076-.4.141-.562.195a8.91 8.91 0 0 1-.554.147 2.06 2.06 0 0 1-.383.041Zm7.771.081a.77.77 0 0 1-.513-.179.826.826 0 0 1-.277-.863l.008-.017c.006-.016.011-.035.017-.057a5.19 5.19 0 0 1-.815.408.79.79 0 0 1-.619-.025.793.793 0 0 1-.423-.456.762.762 0 0 1 .024-.627.796.796 0 0 1 .456-.423c.092-.033.247-.112.464-.237.223-.124.524-.339.904-.643.228-.185.416-.345.562-.481l.228-.211a.787.787 0 0 1 .782-.204c.223.06.391.19.505.391a.807.807 0 0 1 .114.464 3.53 3.53 0 0 1-.089.546.942.942 0 0 1-.033.163 3.043 3.043 0 0 0-.049.163.82.82 0 0 1 .481.114.776.776 0 0 1 .334.374.77.77 0 0 1 .016.619.792.792 0 0 1-.432.448c-.233.103-.445.204-.635.302l-.448.236a2.248 2.248 0 0 1-.171.089.81.81 0 0 1-.391.106Zm1.903.53a1.55 1.55 0 0 1-.171-.009.568.568 0 0 1-.114-.008 1.122 1.122 0 0 1-.407-.211.873.873 0 0 1-.269-.343.774.774 0 0 1-.089-.399c0-.086.008-.171.024-.252l-.155-.106a.635.635 0 0 1-.122-.122.909.909 0 0 1-.195-.554c0-.13.03-.255.089-.375a.94.94 0 0 1 .228-.309l.155-.155a3.29 3.29 0 0 0 .195-.228l.163-.179.237-.252c.081-.087.157-.166.228-.237.086-.076.162-.141.228-.195a1.95 1.95 0 0 1 .171-.13 1.16 1.16 0 0 1 .879-.163c.315.081.524.258.627.529l-.008-.008a.769.769 0 0 1 .049.147.605.605 0 0 1 .033.138 5.85 5.85 0 0 0 .203-.228l.163-.204.114-.13a.165.165 0 0 0 .025-.032l.016-.025c.125-.147.271-.25.44-.309a.855.855 0 0 1 .521-.033.813.813 0 0 1 .326.179c.103.087.187.188.252.302a.94.94 0 0 1 .098.447c-.006.12-.014.201-.025.245a.474.474 0 0 1-.024.073l-.016.073-.049.155-.008.025a.81.81 0 0 1 .325.089.715.715 0 0 1 .269.204.863.863 0 0 1 .155.285.876.876 0 0 1-.277.993l-.041.041a6.796 6.796 0 0 1-.366.293c-.125.098-.258.19-.399.277-.321.19-.636.285-.945.285a1.39 1.39 0 0 1-.391-.057.846.846 0 0 1-.277-.114 1.034 1.034 0 0 1-.212-.187l-.187.155c-.06.043-.127.089-.203.138h.008c-.125.087-.245.16-.359.22-.114.06-.222.111-.325.155a1.15 1.15 0 0 1-.294.081 1.922 1.922 0 0 1-.293.025Z" fill="#F7EAD9"/></svg>