<svg width="494" height="218" fill="none" xmlns="http://www.w3.org/2000/svg"><rect x="156.776" width="179.765" height="217.243" rx="20.327" fill="#fff"/><rect opacity=".3" x="353.128" y="41.289" width="140.382" height="168.966" rx="15.245" transform="rotate(3 353.128 41.289)" fill="#fff"/><rect opacity=".3" y="48.636" width="140.382" height="168.966" rx="15.245" transform="rotate(-3 0 48.636)" fill="#fff"/><rect x="180.154" y="25" width="137.169" height="74.497" rx="5.138" fill="#B176C7"/><rect x="180.154" y="108.957" width="137.169" height="74.497" rx="5.138" fill="#B176C7"/><path d="M180.154 198.826a4.73 4.73 0 0 1 4.73-4.73h127.709a4.73 4.73 0 0 1 4.73 4.73v18.92H180.154v-18.92Z" fill="#B176C7"/><path d="M177.659 27a3 3 0 0 1 3-3h48v76h-48a3 3 0 0 1-3-3V27ZM267.659 109h48a3 3 0 0 1 3 3v70a3 3 0 0 1-3 3h-48v-76Z" fill="#fff" fill-opacity=".3"/><path d="M248.159 58.81c-.093 0-.197-.017-.31-.05a.943.943 0 0 1-.7-.62c-.107-.253-.103-.54.01-.86.04-.113.1-.247.18-.4.013-.027.027-.057.04-.09.02-.033.04-.063.06-.09-.147.08-.297.167-.45.26-.147.087-.297.17-.45.25a17.2 17.2 0 0 1-.78.46c-.253.133-.487.247-.7.34a.942.942 0 0 1-.76.02.939.939 0 0 1-.55-.53.945.945 0 0 1-.02-.76c.1-.26.277-.443.53-.55.153-.073.343-.17.57-.29a30.6 30.6 0 0 0 .71-.41c.293-.173.603-.35.93-.53.327-.187.643-.347.95-.48.353-.173.683-.29.99-.35.213-.053.413-.083.6-.09.187-.007.363.013.53.06.367.107.617.333.75.68.1.247.113.493.04.74-.067.24-.157.467-.27.68l.06-.02a.915.915 0 0 0 .07-.02.921.921 0 0 1 .75.04c.253.113.427.3.52.56a.999.999 0 0 1-.03.77.94.94 0 0 1-.57.51l-.86.3c-.26.093-.49.173-.69.24-.273.08-.5.14-.68.18-.173.033-.33.05-.47.05Zm3.719-.2c-.08 0-.17-.01-.27-.03a1.09 1.09 0 0 1-.7-.55c-.187.073-.38.09-.58.05a.977.977 0 0 1-.53-.32.95.95 0 0 1-.24-.72.935.935 0 0 1 .33-.69c.073-.06.153-.13.24-.21.08-.087.166-.173.26-.26.16-.16.326-.323.5-.49a6.98 6.98 0 0 1 .84-.67c.106-.067.206-.123.3-.17.346-.167.686-.213 1.02-.14.38.107.643.35.79.73.093.267.09.547-.01.84l-.04.1c-.014.033-.03.07-.05.11.24.113.413.3.52.56.093.267.083.527-.03.78a.944.944 0 0 1-.57.51l-.57.22-.44.15c-.067.027-.13.05-.19.07l-.13.05c-.067.013-.137.03-.21.05a.917.917 0 0 1-.24.03Zm2.754 0c-.08 0-.17-.01-.27-.03a1.09 1.09 0 0 1-.7-.55c-.187.073-.38.09-.58.05a.977.977 0 0 1-.53-.32.95.95 0 0 1-.24-.72.935.935 0 0 1 .33-.69c.073-.06.153-.13.24-.21.08-.087.166-.173.26-.26.16-.16.326-.323.5-.49a6.98 6.98 0 0 1 .84-.67c.106-.067.206-.123.3-.17.346-.167.686-.213 1.02-.14.38.107.643.35.79.73.093.267.09.547-.01.84l-.04.1c-.014.033-.03.07-.05.11.24.113.413.3.52.56.093.267.083.527-.03.78a.944.944 0 0 1-.57.51l-.57.22-.44.15c-.067.027-.13.05-.19.07l-.13.05c-.067.013-.137.03-.21.05a.917.917 0 0 1-.24.03Zm4.923.2c-.093 0-.196-.017-.31-.05a.943.943 0 0 1-.7-.62c-.106-.253-.103-.54.01-.86.04-.113.1-.247.18-.4a.899.899 0 0 0 .04-.09c.02-.033.04-.063.06-.09-.146.08-.296.167-.45.26-.146.087-.296.17-.45.25-.266.167-.526.32-.78.46-.253.133-.486.247-.7.34a.942.942 0 0 1-.76.02.939.939 0 0 1-.55-.53.945.945 0 0 1-.02-.76c.1-.26.277-.443.53-.55.154-.073.344-.17.57-.29.227-.127.464-.263.71-.41.294-.173.604-.35.93-.53.327-.187.644-.347.95-.48a4.05 4.05 0 0 1 .99-.35c.214-.053.414-.083.6-.09a1.72 1.72 0 0 1 .53.06c.367.107.617.333.75.68.1.247.114.493.04.74-.066.24-.156.467-.27.68l.06-.02a.915.915 0 0 0 .07-.02.921.921 0 0 1 .75.04c.254.113.427.3.52.56a.99.99 0 0 1-.03.77.94.94 0 0 1-.57.51l-.86.3c-.26.093-.49.173-.69.24-.273.08-.5.14-.68.18-.173.033-.33.05-.47.05Zm8.582-.2c-.08 0-.17-.01-.27-.03a1.093 1.093 0 0 1-.7-.55c-.186.073-.38.09-.58.05a.984.984 0 0 1-.53-.32.95.95 0 0 1-.24-.72.942.942 0 0 1 .33-.69c.074-.06.154-.13.24-.21.08-.087.167-.173.26-.26.16-.16.327-.323.5-.49a7.189 7.189 0 0 1 .84-.67c.107-.067.207-.123.3-.17.347-.167.687-.213 1.02-.14.38.107.644.35.79.73.094.267.09.547-.01.84l-.04.1c-.013.033-.03.07-.05.11.24.113.414.3.52.56.094.267.084.527-.03.78a.94.94 0 0 1-.57.51l-.57.22-.44.15a11.267 11.267 0 0 0-.32.12c-.066.013-.136.03-.21.05a.906.906 0 0 1-.24.03Zm4.924.2c-.093 0-.196-.017-.31-.05a.943.943 0 0 1-.7-.62c-.106-.253-.103-.54.01-.86.04-.113.1-.247.18-.4a.899.899 0 0 0 .04-.09c.02-.033.04-.063.06-.09-.146.08-.296.167-.45.26-.146.087-.296.17-.45.25-.266.167-.526.32-.78.46-.253.133-.486.247-.7.34a.942.942 0 0 1-.76.02.939.939 0 0 1-.55-.53.945.945 0 0 1-.02-.76c.1-.26.277-.443.53-.55.154-.073.344-.17.57-.29.227-.127.464-.263.71-.41.294-.173.604-.35.93-.53.327-.187.644-.347.95-.48a4.05 4.05 0 0 1 .99-.35c.214-.053.414-.083.6-.09a1.72 1.72 0 0 1 .53.06c.367.107.617.333.75.68.1.247.114.493.04.74-.066.24-.156.467-.27.68l.06-.02a.915.915 0 0 0 .07-.02.921.921 0 0 1 .75.04c.254.113.427.3.52.56a.99.99 0 0 1-.03.77.94.94 0 0 1-.57.51l-.86.3c-.26.093-.49.173-.69.24-.273.08-.5.14-.68.18-.173.033-.33.05-.47.05Zm7.992.75c-.073 0-.143-.003-.21-.01a.757.757 0 0 1-.14-.01 1.386 1.386 0 0 1-.5-.26 1.078 1.078 0 0 1-.33-.42 1.006 1.006 0 0 1-.09-.25 1.495 1.495 0 0 1 .01-.55l-.19-.13a.83.83 0 0 1-.15-.15c-.16-.213-.24-.44-.24-.68 0-.16.037-.313.11-.46.067-.147.16-.273.28-.38l.19-.19c.087-.093.167-.187.24-.28l.2-.22.29-.31c.1-.107.194-.203.28-.29.107-.093.2-.173.28-.24.08-.067.15-.12.21-.16.347-.213.707-.28 1.08-.2.387.1.644.317.77.65l-.01-.01c.027.06.047.12.06.18.02.053.034.11.04.17.094-.1.177-.193.25-.28.074-.093.14-.177.2-.25l.14-.16a.13.13 0 0 0 .03-.04l.02-.03c.154-.18.334-.307.54-.38.214-.08.427-.093.64-.04.147.04.28.113.4.22.127.107.23.23.31.37.094.213.134.397.12.55a1.667 1.667 0 0 1-.03.3.544.544 0 0 1-.03.09 1.174 1.174 0 0 1-.02.09l-.06.19-.01.03a.997.997 0 0 1 .4.11c.134.06.244.143.33.25.087.107.15.223.19.35.047.127.07.25.07.37 0 .333-.136.617-.41.85l-.05.05c-.14.12-.29.24-.45.36-.153.12-.316.233-.49.34-.393.233-.78.35-1.16.35-.16 0-.32-.023-.48-.07a1.082 1.082 0 0 1-.6-.37l-.23.19c-.073.053-.156.11-.25.17h.01c-.153.107-.3.197-.44.27a5.23 5.23 0 0 1-.4.19c-.106.047-.226.08-.36.1a2.3 2.3 0 0 1-.36.03Zm-35.654 10c-.073 0-.143-.003-.21-.01a.75.75 0 0 1-.14-.01 1.378 1.378 0 0 1-.5-.26 1.06 1.06 0 0 1-.33-.42.931.931 0 0 1-.11-.49c0-.107.01-.21.03-.31l-.19-.13a.77.77 0 0 1-.15-.15c-.16-.213-.24-.44-.24-.68 0-.16.037-.313.11-.46.067-.147.16-.273.28-.38l.19-.19c.087-.093.167-.187.24-.28l.2-.22.29-.31c.1-.107.193-.203.28-.29.107-.093.2-.173.28-.24.08-.067.15-.12.21-.16.347-.213.707-.28 1.08-.2.387.1.643.317.77.65l-.01-.01c.027.06.047.12.06.18.02.053.033.11.04.17.093-.1.177-.193.25-.28.073-.093.14-.177.2-.25l.14-.16a.174.174 0 0 0 .03-.04l.02-.03a1.25 1.25 0 0 1 .54-.38c.213-.08.427-.093.64-.04.147.04.28.113.4.22.127.107.23.23.31.37.093.213.133.397.12.55a1.884 1.884 0 0 1-.03.3.83.83 0 0 1-.03.09l-.02.09-.06.19-.01.03c.133.007.267.043.4.11a.89.89 0 0 1 .33.25c.087.107.15.223.19.35.047.127.07.25.07.37 0 .333-.137.617-.41.85l-.05.05c-.14.12-.29.24-.45.36-.153.12-.317.233-.49.34-.393.233-.78.35-1.16.35-.16 0-.32-.023-.48-.07a1.082 1.082 0 0 1-.6-.37l-.23.19c-.073.053-.157.11-.25.17h.01c-.153.107-.3.197-.44.27a5.23 5.23 0 0 1-.4.19c-.107.047-.227.08-.36.1-.127.02-.247.03-.36.03Zm6.872-.65a.945.945 0 0 1-.63-.22.964.964 0 0 1-.33-.48c-.06-.2-.063-.393-.01-.58l.01-.02a.628.628 0 0 0 .02-.07 6.3 6.3 0 0 1-1 .5.973.973 0 0 1-.76-.03.978.978 0 0 1-.52-.56.94.94 0 0 1 .03-.77.976.976 0 0 1 .56-.52c.114-.04.304-.137.57-.29.274-.153.644-.417 1.11-.79a14.047 14.047 0 0 0 .97-.85.967.967 0 0 1 .96-.25c.274.073.48.233.62.48a.986.986 0 0 1 .14.57c-.013.193-.05.417-.11.67-.006.067-.02.133-.04.2-.02.06-.04.127-.06.2.214-.013.41.033.59.14.187.107.324.26.41.46.114.247.12.5.02.76a.974.974 0 0 1-.53.55c-.286.127-.546.25-.78.37l-.55.29c-.133.073-.203.11-.21.11a1 1 0 0 1-.48.13Zm3.887 0a.941.941 0 0 1-.63-.22.964.964 0 0 1-.33-.48c-.06-.2-.063-.393-.01-.58l.01-.02c.007-.02.013-.043.02-.07-.367.22-.7.387-1 .5a.973.973 0 0 1-.76-.03.975.975 0 0 1-.52-.56.94.94 0 0 1 .03-.77.976.976 0 0 1 .56-.52c.113-.04.303-.137.57-.29.273-.153.643-.417 1.11-.79a14.047 14.047 0 0 0 .97-.85.966.966 0 0 1 .96-.25c.273.073.48.233.62.48a.994.994 0 0 1 .14.57c-.013.193-.05.417-.11.67a1.09 1.09 0 0 1-.04.2c-.02.06-.04.127-.06.2.213-.013.41.033.59.14.187.107.323.26.41.46.113.247.12.5.02.76a.977.977 0 0 1-.53.55c-.287.127-.547.25-.78.37a173.602 173.602 0 0 1-.76.4 1 1 0 0 1-.48.13Zm5.097-.1c-.094 0-.197-.017-.31-.05a.941.941 0 0 1-.7-.62c-.107-.253-.104-.54.01-.86.04-.113.1-.247.18-.4l.04-.09c.02-.033.04-.063.06-.09-.147.08-.297.167-.45.26-.147.087-.297.17-.45.25a17.2 17.2 0 0 1-.78.46c-.254.133-.487.247-.7.34a.942.942 0 0 1-.76.02.936.936 0 0 1-.55-.53.94.94 0 0 1-.02-.76c.1-.26.276-.443.53-.55.153-.073.343-.17.57-.29.226-.127.463-.263.71-.41.293-.173.603-.35.93-.53a9.66 9.66 0 0 1 .95-.48c.353-.173.683-.29.99-.35.213-.053.413-.083.6-.09.186-.007.363.013.53.06.366.107.616.333.75.68.1.247.113.493.04.74-.067.24-.157.467-.27.68l.06-.02c.026-.007.05-.013.07-.02a.921.921 0 0 1 .75.04.94.94 0 0 1 .52.56.999.999 0 0 1-.03.77.944.944 0 0 1-.57.51l-.86.3c-.26.093-.49.173-.69.24-.274.08-.5.14-.68.18a2.52 2.52 0 0 1-.47.05Zm5.888 0c-.093 0-.196-.017-.31-.05a.943.943 0 0 1-.7-.62c-.106-.253-.103-.54.01-.86.04-.113.1-.247.18-.4a.899.899 0 0 0 .04-.09c.02-.033.04-.063.06-.09-.146.08-.296.167-.45.26-.146.087-.296.17-.45.25-.266.167-.526.32-.78.46-.253.133-.486.247-.7.34a.942.942 0 0 1-.76.02.939.939 0 0 1-.55-.53.945.945 0 0 1-.02-.76c.1-.26.277-.443.53-.55.154-.073.344-.17.57-.29.227-.127.464-.263.71-.41.294-.173.604-.35.93-.53.327-.187.644-.347.95-.48a4.05 4.05 0 0 1 .99-.35c.214-.053.414-.083.6-.09a1.72 1.72 0 0 1 .53.06c.367.107.617.333.75.68.1.247.114.493.04.74-.066.24-.156.467-.27.68l.06-.02a.915.915 0 0 0 .07-.02.921.921 0 0 1 .75.04c.254.113.427.3.52.56a.99.99 0 0 1-.03.77.94.94 0 0 1-.57.51l-.86.3c-.26.093-.49.173-.69.24-.273.08-.5.14-.68.18-.173.033-.33.05-.47.05Zm3.129.75c-.073 0-.143-.003-.21-.01a.75.75 0 0 1-.14-.01 1.378 1.378 0 0 1-.5-.26 1.06 1.06 0 0 1-.33-.42.931.931 0 0 1-.11-.49c0-.107.01-.21.03-.31l-.19-.13a.77.77 0 0 1-.15-.15c-.16-.213-.24-.44-.24-.68 0-.16.037-.313.11-.46.067-.147.16-.273.28-.38l.19-.19c.087-.093.167-.187.24-.28l.2-.22.29-.31c.1-.107.193-.203.28-.29.107-.093.2-.173.28-.24.08-.067.15-.12.21-.16.347-.213.707-.28 1.08-.2.387.1.643.317.77.65l-.01-.01c.027.06.047.12.06.18.02.053.033.11.04.17.093-.1.177-.193.25-.28.073-.093.14-.177.2-.25l.14-.16a.174.174 0 0 0 .03-.04l.02-.03a1.25 1.25 0 0 1 .54-.38c.213-.08.427-.093.64-.04.147.04.28.113.4.22.127.107.23.23.31.37.093.213.133.397.12.55a1.884 1.884 0 0 1-.03.3.83.83 0 0 1-.03.09l-.02.09-.06.19-.01.03c.133.007.267.043.4.11a.89.89 0 0 1 .33.25c.087.107.15.223.19.35.047.127.07.25.07.37 0 .333-.137.617-.41.85l-.05.05c-.14.12-.29.24-.45.36-.153.12-.317.233-.49.34-.393.233-.78.35-1.16.35-.16 0-.32-.023-.48-.07a1.082 1.082 0 0 1-.6-.37l-.23.19c-.073.053-.157.11-.25.17h.01c-.153.107-.3.197-.44.27a5.23 5.23 0 0 1-.4.19c-.107.047-.227.08-.36.1-.127.02-.247.03-.36.03Zm5.322 0c-.073 0-.143-.003-.21-.01a.757.757 0 0 1-.14-.01 1.386 1.386 0 0 1-.5-.26 1.078 1.078 0 0 1-.33-.42 1.006 1.006 0 0 1-.09-.25 1.495 1.495 0 0 1 .01-.55l-.19-.13a.83.83 0 0 1-.15-.15c-.16-.213-.24-.44-.24-.68 0-.16.037-.313.11-.46.067-.147.16-.273.28-.38l.19-.19c.087-.093.167-.187.24-.28l.2-.22.29-.31c.1-.107.194-.203.28-.29.107-.093.2-.173.28-.24.08-.067.15-.12.21-.16.347-.213.707-.28 1.08-.2.387.1.644.317.77.65l-.01-.01c.027.06.047.12.06.18.02.053.034.11.04.17.094-.1.177-.193.25-.28.074-.093.14-.177.2-.25l.14-.16a.13.13 0 0 0 .03-.04l.02-.03c.154-.18.334-.307.54-.38.214-.08.427-.093.64-.04.147.04.28.113.4.22.127.107.23.23.31.37.094.213.134.397.12.55a1.667 1.667 0 0 1-.03.3.544.544 0 0 1-.03.09 1.174 1.174 0 0 1-.02.09l-.06.19-.01.03a.997.997 0 0 1 .4.11c.134.06.244.143.33.25.087.107.15.223.19.35.047.127.07.25.07.37 0 .333-.136.617-.41.85l-.05.05c-.14.12-.29.24-.45.36-.153.12-.316.233-.49.34-.393.233-.78.35-1.16.35-.16 0-.32-.023-.48-.07a1.082 1.082 0 0 1-.6-.37l-.23.19c-.073.053-.156.11-.25.17h.01c-.153.107-.3.197-.44.27a5.23 5.23 0 0 1-.4.19c-.106.047-.226.08-.36.1a2.3 2.3 0 0 1-.36.03Zm8.083-.75c-.094 0-.197-.017-.31-.05a.941.941 0 0 1-.7-.62c-.107-.253-.104-.54.01-.86.04-.113.1-.247.18-.4l.04-.09c.02-.033.04-.063.06-.09-.147.08-.297.167-.45.26-.147.087-.297.17-.45.25a17.2 17.2 0 0 1-.78.46c-.254.133-.487.247-.7.34a.942.942 0 0 1-.76.02.936.936 0 0 1-.55-.53.94.94 0 0 1-.02-.76c.1-.26.276-.443.53-.55.153-.073.343-.17.57-.29.226-.127.463-.263.71-.41.293-.173.603-.35.93-.53a9.66 9.66 0 0 1 .95-.48c.353-.173.683-.29.99-.35.213-.053.413-.083.6-.09.186-.007.363.013.53.06.366.107.616.333.75.68.1.247.113.493.04.74-.067.24-.157.467-.27.68l.06-.02c.026-.007.05-.013.07-.02a.921.921 0 0 1 .75.04.94.94 0 0 1 .52.56.999.999 0 0 1-.03.77.944.944 0 0 1-.57.51l-.86.3c-.26.093-.49.173-.69.24-.274.08-.5.14-.68.18a2.52 2.52 0 0 1-.47.05Zm3.128.75c-.073 0-.143-.003-.21-.01a.757.757 0 0 1-.14-.01 1.386 1.386 0 0 1-.5-.26 1.078 1.078 0 0 1-.33-.42 1.006 1.006 0 0 1-.09-.25 1.495 1.495 0 0 1 .01-.55l-.19-.13a.83.83 0 0 1-.15-.15c-.16-.213-.24-.44-.24-.68 0-.16.037-.313.11-.46.067-.147.16-.273.28-.38l.19-.19c.087-.093.167-.187.24-.28l.2-.22.29-.31c.1-.107.194-.203.28-.29.107-.093.2-.173.28-.24.08-.067.15-.12.21-.16.347-.213.707-.28 1.08-.2.387.1.644.317.77.65l-.01-.01c.027.06.047.12.06.18.02.053.034.11.04.17.094-.1.177-.193.25-.28.074-.093.14-.177.2-.25l.14-.16a.13.13 0 0 0 .03-.04l.02-.03c.154-.18.334-.307.54-.38.214-.08.427-.093.64-.04.147.04.28.113.4.22.127.107.23.23.31.37.094.213.134.397.12.55a1.667 1.667 0 0 1-.03.3.544.544 0 0 1-.03.09 1.174 1.174 0 0 1-.02.09l-.06.19-.01.03a.997.997 0 0 1 .4.11c.134.06.244.143.33.25.087.107.15.223.19.35.047.127.07.25.07.37 0 .333-.136.617-.41.85l-.05.05c-.14.12-.29.24-.45.36-.153.12-.316.233-.49.34-.393.233-.78.35-1.16.35-.16 0-.32-.023-.48-.07a1.082 1.082 0 0 1-.6-.37l-.23.19c-.073.053-.156.11-.25.17h.01c-.153.107-.3.197-.44.27a5.23 5.23 0 0 1-.4.19c-.106.047-.226.08-.36.1a2.3 2.3 0 0 1-.36.03ZM200.05 135.81c-.093 0-.196-.017-.31-.05a.944.944 0 0 1-.7-.62c-.106-.253-.103-.54.01-.86.04-.113.1-.247.18-.4a.964.964 0 0 0 .04-.09c.02-.033.04-.063.06-.09-.146.08-.296.167-.45.26-.146.087-.296.17-.45.25-.266.167-.526.32-.78.46-.253.133-.486.247-.7.34a.943.943 0 0 1-.76.02.94.94 0 0 1-.55-.53.945.945 0 0 1-.02-.76.94.94 0 0 1 .53-.55c.154-.073.344-.17.57-.29.227-.127.464-.263.71-.41.294-.173.604-.35.93-.53a9.75 9.75 0 0 1 .95-.48c.354-.173.684-.29.99-.35a2.97 2.97 0 0 1 .6-.09c.187-.007.364.013.53.06.367.107.617.333.75.68.1.247.114.493.04.74a3.28 3.28 0 0 1-.27.68l.06-.02a.915.915 0 0 0 .07-.02.922.922 0 0 1 .75.04c.254.113.427.3.52.56a.99.99 0 0 1-.03.77.937.937 0 0 1-.57.51 739.941 739.941 0 0 1-1.55.54c-.273.08-.5.14-.68.18-.173.033-.33.05-.47.05Zm4.679.1a.94.94 0 0 1-.63-.22.967.967 0 0 1-.33-.48c-.06-.2-.063-.393-.01-.58l.01-.02a.915.915 0 0 0 .02-.07c-.367.22-.7.387-1 .5a.975.975 0 0 1-.76-.03.976.976 0 0 1-.52-.56.94.94 0 0 1 .03-.77.976.976 0 0 1 .56-.52c.113-.04.303-.137.57-.29.273-.153.643-.417 1.11-.79a14.047 14.047 0 0 0 .97-.85.966.966 0 0 1 .96-.25c.273.073.48.233.62.48a.995.995 0 0 1 .14.57c-.013.193-.05.417-.11.67a1.09 1.09 0 0 1-.04.2c-.02.06-.04.127-.06.2.213-.013.41.033.59.14.187.107.323.26.41.46.113.247.12.5.02.76a.977.977 0 0 1-.53.55c-.287.127-.547.25-.78.37l-.55.29c-.133.073-.203.11-.21.11a.996.996 0 0 1-.48.13Zm8.43-.1a1.12 1.12 0 0 1-.31-.05.944.944 0 0 1-.7-.62c-.107-.253-.103-.54.01-.86.04-.113.1-.247.18-.4.013-.027.027-.057.04-.09.02-.033.04-.063.06-.09-.147.08-.297.167-.45.26a9.78 9.78 0 0 1-.45.25c-.267.167-.527.32-.78.46-.253.133-.487.247-.7.34a.943.943 0 0 1-.76.02.94.94 0 0 1-.55-.53.945.945 0 0 1-.02-.76.94.94 0 0 1 .53-.55c.153-.073.343-.17.57-.29a30.6 30.6 0 0 0 .71-.41c.293-.173.603-.35.93-.53.327-.187.643-.347.95-.48.353-.173.683-.29.99-.35a2.95 2.95 0 0 1 .6-.09c.187-.007.363.013.53.06.367.107.617.333.75.68.1.247.113.493.04.74-.067.24-.157.467-.27.68l.06-.02a.915.915 0 0 0 .07-.02.923.923 0 0 1 .75.04c.253.113.427.3.52.56a.999.999 0 0 1-.03.77.937.937 0 0 1-.57.51l-.86.3c-.26.093-.49.173-.69.24-.273.08-.5.14-.68.18-.173.033-.33.05-.47.05Zm5.889 0c-.094 0-.197-.017-.31-.05a.942.942 0 0 1-.7-.62c-.107-.253-.104-.54.01-.86.04-.113.1-.247.18-.4l.04-.09c.02-.033.04-.063.06-.09-.147.08-.297.167-.45.26a9.78 9.78 0 0 1-.45.25c-.267.167-.527.32-.78.46-.254.133-.487.247-.7.34a.943.943 0 0 1-.76.02.937.937 0 0 1-.55-.53.94.94 0 0 1-.02-.76c.1-.26.276-.443.53-.55.153-.073.343-.17.57-.29.226-.127.463-.263.71-.41.293-.173.603-.35.93-.53.326-.187.643-.347.95-.48.353-.173.683-.29.99-.35a2.95 2.95 0 0 1 .6-.09 1.71 1.71 0 0 1 .53.06c.366.107.616.333.75.68.1.247.113.493.04.74-.067.24-.157.467-.27.68l.06-.02c.026-.007.05-.013.07-.02a.923.923 0 0 1 .75.04.94.94 0 0 1 .52.56.999.999 0 0 1-.03.77.943.943 0 0 1-.57.51l-.86.3c-.26.093-.49.173-.69.24-.274.08-.5.14-.68.18-.174.033-.33.05-.47.05Zm5.888 0c-.093 0-.196-.017-.31-.05a.944.944 0 0 1-.7-.62c-.106-.253-.103-.54.01-.86.04-.113.1-.247.18-.4a.964.964 0 0 0 .04-.09c.02-.033.04-.063.06-.09-.146.08-.296.167-.45.26-.146.087-.296.17-.45.25-.266.167-.526.32-.78.46-.253.133-.486.247-.7.34a.943.943 0 0 1-.76.02.94.94 0 0 1-.55-.53.945.945 0 0 1-.02-.76.94.94 0 0 1 .53-.55c.154-.073.344-.17.57-.29.227-.127.464-.263.71-.41.294-.173.604-.35.93-.53a9.75 9.75 0 0 1 .95-.48c.354-.173.684-.29.99-.35a2.97 2.97 0 0 1 .6-.09c.187-.007.364.013.53.06.367.107.617.333.75.68.1.247.114.493.04.74a3.28 3.28 0 0 1-.27.68l.06-.02a.915.915 0 0 0 .07-.02.922.922 0 0 1 .75.04c.254.113.427.3.52.56a.99.99 0 0 1-.03.77.937.937 0 0 1-.57.51 739.941 739.941 0 0 1-1.55.54c-.273.08-.5.14-.68.18-.173.033-.33.05-.47.05Zm5.889 0a1.12 1.12 0 0 1-.31-.05.944.944 0 0 1-.7-.62c-.107-.253-.103-.54.01-.86.04-.113.1-.247.18-.4.013-.027.027-.057.04-.09.02-.033.04-.063.06-.09-.147.08-.297.167-.45.26a9.78 9.78 0 0 1-.45.25c-.267.167-.527.32-.78.46-.253.133-.487.247-.7.34a.943.943 0 0 1-.76.02.94.94 0 0 1-.55-.53.945.945 0 0 1-.02-.76.94.94 0 0 1 .53-.55c.153-.073.343-.17.57-.29a30.6 30.6 0 0 0 .71-.41c.293-.173.603-.35.93-.53.327-.187.643-.347.95-.48.353-.173.683-.29.99-.35a2.95 2.95 0 0 1 .6-.09c.187-.007.363.013.53.06.367.107.617.333.75.68.1.247.113.493.04.74-.067.24-.157.467-.27.68l.06-.02a.915.915 0 0 0 .07-.02.923.923 0 0 1 .75.04c.253.113.427.3.52.56a.999.999 0 0 1-.03.77.937.937 0 0 1-.57.51l-.86.3c-.26.093-.49.173-.69.24-.273.08-.5.14-.68.18-.173.033-.33.05-.47.05Zm5.889 0c-.094 0-.197-.017-.31-.05a.942.942 0 0 1-.7-.62c-.107-.253-.104-.54.01-.86.04-.113.1-.247.18-.4l.04-.09c.02-.033.04-.063.06-.09-.147.08-.297.167-.45.26a9.78 9.78 0 0 1-.45.25c-.267.167-.527.32-.78.46-.254.133-.487.247-.7.34a.943.943 0 0 1-.76.02.937.937 0 0 1-.55-.53.94.94 0 0 1-.02-.76c.1-.26.276-.443.53-.55.153-.073.343-.17.57-.29.226-.127.463-.263.71-.41.293-.173.603-.35.93-.53.326-.187.643-.347.95-.48.353-.173.683-.29.99-.35a2.95 2.95 0 0 1 .6-.09 1.71 1.71 0 0 1 .53.06c.366.107.616.333.75.68.1.247.113.493.04.74-.067.24-.157.467-.27.68l.06-.02c.026-.007.05-.013.07-.02a.923.923 0 0 1 .75.04.94.94 0 0 1 .52.56.999.999 0 0 1-.03.77.943.943 0 0 1-.57.51l-.86.3c-.26.093-.49.173-.69.24-.274.08-.5.14-.68.18-.174.033-.33.05-.47.05Zm3.718-.2c-.08 0-.17-.01-.27-.03a1.092 1.092 0 0 1-.7-.55c-.186.073-.38.09-.58.05a.984.984 0 0 1-.53-.32.951.951 0 0 1-.24-.72.942.942 0 0 1 .33-.69c.074-.06.154-.13.24-.21.08-.087.167-.173.26-.26.16-.16.327-.323.5-.49a7.189 7.189 0 0 1 .84-.67c.107-.067.207-.123.3-.17.347-.167.687-.213 1.02-.14.38.107.644.35.79.73.094.267.09.547-.01.84l-.04.1c-.013.033-.03.07-.05.11.24.113.414.3.52.56.094.267.084.527-.03.78a.937.937 0 0 1-.57.51l-.57.22-.44.15a3.04 3.04 0 0 1-.19.07l-.13.05c-.066.013-.136.03-.21.05a.906.906 0 0 1-.24.03Zm2.164.95c-.073 0-.143-.003-.21-.01a.731.731 0 0 1-.14-.01 1.382 1.382 0 0 1-.5-.26 1.074 1.074 0 0 1-.33-.42 1.006 1.006 0 0 1-.09-.25 1.495 1.495 0 0 1 .01-.55 9.674 9.674 0 0 1-.19-.13.812.812 0 0 1-.15-.15c-.16-.213-.24-.44-.24-.68 0-.16.037-.313.11-.46.067-.147.16-.273.28-.38l.19-.19c.087-.093.167-.187.24-.28l.2-.22.29-.31c.1-.107.194-.203.28-.29.107-.093.2-.173.28-.24.08-.067.15-.12.21-.16.347-.213.707-.28 1.08-.2.387.1.644.317.77.65l-.01-.01c.027.06.047.12.06.18a.67.67 0 0 1 .04.17c.094-.1.177-.193.25-.28.074-.093.14-.177.2-.25l.14-.16a.13.13 0 0 0 .03-.04l.02-.03a1.26 1.26 0 0 1 .54-.38c.214-.08.427-.093.64-.04.147.04.28.113.4.22.127.107.23.23.31.37.094.213.134.397.12.55a1.66 1.66 0 0 1-.03.3.526.526 0 0 1-.03.09 1.242 1.242 0 0 1-.02.09l-.06.19-.01.03a.997.997 0 0 1 .4.11c.134.06.244.143.33.25.087.107.15.223.19.35.047.127.07.25.07.37 0 .333-.136.617-.41.85l-.05.05c-.14.12-.29.24-.45.36-.153.12-.316.233-.49.34-.393.233-.78.35-1.16.35-.16 0-.32-.023-.48-.07a1.082 1.082 0 0 1-.6-.37l-.23.19c-.073.053-.156.11-.25.17h.01c-.153.107-.3.197-.44.27a5.23 5.23 0 0 1-.4.19c-.106.047-.226.08-.36.1a2.3 2.3 0 0 1-.36.03ZM198.05 150.81c-.093 0-.196-.017-.31-.05a.944.944 0 0 1-.7-.62c-.106-.253-.103-.54.01-.86.04-.113.1-.247.18-.4a.964.964 0 0 0 .04-.09c.02-.033.04-.063.06-.09-.146.08-.296.167-.45.26-.146.087-.296.17-.45.25-.266.167-.526.32-.78.46-.253.133-.486.247-.7.34a.943.943 0 0 1-.76.02.94.94 0 0 1-.55-.53.945.945 0 0 1-.02-.76.94.94 0 0 1 .53-.55c.154-.073.344-.17.57-.29.227-.127.464-.263.71-.41.294-.173.604-.35.93-.53a9.75 9.75 0 0 1 .95-.48c.354-.173.684-.29.99-.35a2.97 2.97 0 0 1 .6-.09c.187-.007.364.013.53.06.367.107.617.333.75.68.1.247.114.493.04.74a3.28 3.28 0 0 1-.27.68l.06-.02a.915.915 0 0 0 .07-.02.922.922 0 0 1 .75.04c.254.113.427.3.52.56a.99.99 0 0 1-.03.77.937.937 0 0 1-.57.51 739.941 739.941 0 0 1-1.55.54c-.273.08-.5.14-.68.18-.173.033-.33.05-.47.05Zm4.679.1a.94.94 0 0 1-.63-.22.967.967 0 0 1-.33-.48c-.06-.2-.063-.393-.01-.58l.01-.02a.915.915 0 0 0 .02-.07c-.367.22-.7.387-1 .5a.975.975 0 0 1-.76-.03.976.976 0 0 1-.52-.56.94.94 0 0 1 .03-.77.976.976 0 0 1 .56-.52c.113-.04.303-.137.57-.29.273-.153.643-.417 1.11-.79a14.047 14.047 0 0 0 .97-.85.966.966 0 0 1 .96-.25c.273.073.48.233.62.48a.995.995 0 0 1 .14.57c-.013.193-.05.417-.11.67a1.09 1.09 0 0 1-.04.2c-.02.06-.04.127-.06.2.213-.013.41.033.59.14.187.107.323.26.41.46.113.247.12.5.02.76a.977.977 0 0 1-.53.55c-.287.127-.547.25-.78.37l-.55.29c-.133.073-.203.11-.21.11a.996.996 0 0 1-.48.13Zm5.67.65c-.073 0-.143-.003-.21-.01a.724.724 0 0 1-.14-.01 1.374 1.374 0 0 1-.5-.26 1.056 1.056 0 0 1-.33-.42.931.931 0 0 1-.11-.49c0-.107.01-.21.03-.31a9.674 9.674 0 0 1-.19-.13.754.754 0 0 1-.15-.15c-.16-.213-.24-.44-.24-.68 0-.16.037-.313.11-.46.067-.147.16-.273.28-.38l.19-.19c.087-.093.167-.187.24-.28l.2-.22.29-.31c.1-.107.193-.203.28-.29.107-.093.2-.173.28-.24.08-.067.15-.12.21-.16.347-.213.707-.28 1.08-.2.387.1.643.317.77.65l-.01-.01c.027.06.047.12.06.18.02.053.033.11.04.17.093-.1.177-.193.25-.28.073-.093.14-.177.2-.25l.14-.16a.174.174 0 0 0 .03-.04l.02-.03c.153-.18.333-.307.54-.38.213-.08.427-.093.64-.04.147.04.28.113.4.22.127.107.23.23.31.37.093.213.133.397.12.55a1.875 1.875 0 0 1-.03.3.788.788 0 0 1-.03.09l-.02.09-.06.19-.01.03c.133.007.267.043.4.11.133.06.243.143.33.25.087.107.15.223.19.35.047.127.07.25.07.37 0 .333-.137.617-.41.85l-.05.05c-.14.12-.29.24-.45.36-.153.12-.317.233-.49.34-.393.233-.78.35-1.16.35-.16 0-.32-.023-.48-.07a1.082 1.082 0 0 1-.6-.37l-.23.19c-.073.053-.157.11-.25.17h.01c-.153.107-.3.197-.44.27a5.23 5.23 0 0 1-.4.19c-.107.047-.227.08-.36.1-.127.02-.247.03-.36.03Zm8.082-.75c-.093 0-.196-.017-.31-.05a.944.944 0 0 1-.7-.62c-.106-.253-.103-.54.01-.86.04-.113.1-.247.18-.4a.964.964 0 0 0 .04-.09c.02-.033.04-.063.06-.09-.146.08-.296.167-.45.26-.146.087-.296.17-.45.25-.266.167-.526.32-.78.46-.253.133-.486.247-.7.34a.943.943 0 0 1-.76.02.94.94 0 0 1-.55-.53.945.945 0 0 1-.02-.76.94.94 0 0 1 .53-.55c.154-.073.344-.17.57-.29.227-.127.464-.263.71-.41.294-.173.604-.35.93-.53a9.75 9.75 0 0 1 .95-.48c.354-.173.684-.29.99-.35a2.97 2.97 0 0 1 .6-.09c.187-.007.364.013.53.06.367.107.617.333.75.68.1.247.114.493.04.74a3.28 3.28 0 0 1-.27.68l.06-.02a.915.915 0 0 0 .07-.02.922.922 0 0 1 .75.04c.254.113.427.3.52.56a.99.99 0 0 1-.03.77.937.937 0 0 1-.57.51 739.941 739.941 0 0 1-1.55.54c-.273.08-.5.14-.68.18-.173.033-.33.05-.47.05Zm3.719-.2c-.08 0-.17-.01-.27-.03a1.09 1.09 0 0 1-.7-.55c-.187.073-.38.09-.58.05a.98.98 0 0 1-.53-.32.951.951 0 0 1-.24-.72.935.935 0 0 1 .33-.69c.073-.06.153-.13.24-.21.08-.087.167-.173.26-.26.16-.16.327-.323.5-.49a6.98 6.98 0 0 1 .84-.67c.107-.067.207-.123.3-.17.347-.167.687-.213 1.02-.14.38.107.643.35.79.73.093.267.09.547-.01.84l-.04.1c-.013.033-.03.07-.05.11.24.113.413.3.52.56.093.267.083.527-.03.78a.937.937 0 0 1-.57.51l-.57.22-.44.15a9.878 9.878 0 0 0-.32.12c-.067.013-.137.03-.21.05a.906.906 0 0 1-.24.03Zm3.084.89c-.12 0-.247-.017-.38-.05a.907.907 0 0 1-.64-.51.955.955 0 0 1-.12-.47l.03-.32.02-.1a.877.877 0 0 0 .03-.12 2.55 2.55 0 0 1-.13.07c-.04.013-.084.027-.13.04a1.022 1.022 0 0 1-.91-.11.97.97 0 0 1-.37-.49 1 1 0 0 1 .04-.76.937.937 0 0 1 .56-.52 1.32 1.32 0 0 0 .18-.08c.093-.053.233-.15.42-.29.193-.14.443-.343.75-.61.266-.233.493-.437.68-.61l.29-.28a.987.987 0 0 1 .44-.26.92.92 0 0 1 .52.01c.286.073.493.24.62.5a1 1 0 0 1 .1.31.862.862 0 0 1-.03.46c0 .007-.004.013-.01.02-.007.007-.01.017-.01.03a.273.273 0 0 0-.02.05.12.12 0 0 1-.01.05.976.976 0 0 1-.06.15l-.07.19a6.2 6.2 0 0 0-.09.24c-.027.087-.06.177-.1.27l.04-.02a.94.94 0 0 1 .79-.17.92.92 0 0 1 .62.43.91.91 0 0 1 .15.75.96.96 0 0 1-.43.64c-.16.107-.314.213-.46.32-.14.1-.284.207-.43.32-.167.127-.324.243-.47.35-.14.107-.284.2-.43.28-.107.06-.207.107-.3.14-.094.04-.187.073-.28.1-.147.033-.28.05-.4.05Zm3.896 0c-.12 0-.246-.017-.38-.05a.909.909 0 0 1-.64-.51.977.977 0 0 1-.12-.47l.03-.32.02-.1a.658.658 0 0 0 .03-.12c-.046.027-.09.05-.13.07-.04.013-.083.027-.13.04a1.026 1.026 0 0 1-.91-.11 1.009 1.009 0 0 1-.33-1.25.94.94 0 0 1 .56-.52c.027-.007.087-.033.18-.08.094-.053.234-.15.42-.29.194-.14.444-.343.75-.61.267-.233.494-.437.68-.61l.29-.28a.998.998 0 0 1 .44-.26.92.92 0 0 1 .52.01c.287.073.494.24.62.5.04.067.074.17.1.31a.843.843 0 0 1-.04.48.045.045 0 0 0-.01.03.573.573 0 0 0-.02.05c0 .02-.003.037-.01.05a.808.808 0 0 1-.06.15l-.07.19-.09.24c-.026.087-.06.177-.1.27l.04-.02a.942.942 0 0 1 .79-.17.916.916 0 0 1 .62.43.91.91 0 0 1 .15.75.953.953 0 0 1-.43.64 15.319 15.319 0 0 0-.89.64c-.166.127-.323.243-.47.35-.14.107-.283.2-.43.28-.106.06-.206.107-.3.14-.093.04-.186.073-.28.1-.146.033-.28.05-.4.05Zm4.527-.59a.94.94 0 0 1-.63-.22 1.007 1.007 0 0 1-.34-1.06l.01-.02.02-.07c-.367.22-.7.387-1 .5a.975.975 0 0 1-.76-.03.973.973 0 0 1-.52-.56.94.94 0 0 1 .03-.77.973.973 0 0 1 .56-.52c.113-.04.303-.137.57-.29.273-.153.643-.417 1.11-.79.28-.227.51-.423.69-.59l.28-.26a.966.966 0 0 1 .96-.25c.273.073.48.233.62.48.106.187.153.377.14.57-.014.193-.05.417-.11.67a1.09 1.09 0 0 1-.04.2c-.02.06-.04.127-.06.2.213-.013.41.033.59.14.186.107.323.26.41.46.113.247.12.5.02.76a.977.977 0 0 1-.53.55c-.287.127-.547.25-.78.37l-.55.29c-.134.073-.204.11-.21.11a.996.996 0 0 1-.48.13Zm2.926-.3c-.08 0-.17-.01-.27-.03a1.092 1.092 0 0 1-.7-.55c-.186.073-.38.09-.58.05a.984.984 0 0 1-.53-.32.951.951 0 0 1-.24-.72.942.942 0 0 1 .33-.69c.074-.06.154-.13.24-.21.08-.087.167-.173.26-.26.16-.16.327-.323.5-.49a7.189 7.189 0 0 1 .84-.67c.107-.067.207-.123.3-.17.347-.167.687-.213 1.02-.14.38.107.644.35.79.73.094.267.09.547-.01.84l-.04.1c-.013.033-.03.07-.05.11.24.113.414.3.52.56.094.267.084.527-.03.78a.937.937 0 0 1-.57.51l-.57.22-.44.15a3.04 3.04 0 0 1-.19.07l-.13.05c-.066.013-.136.03-.21.05a.906.906 0 0 1-.24.03ZM198.05 163.81c-.093 0-.196-.017-.31-.05a.944.944 0 0 1-.7-.62c-.106-.253-.103-.54.01-.86.04-.113.1-.247.18-.4a.964.964 0 0 0 .04-.09c.02-.033.04-.063.06-.09-.146.08-.296.167-.45.26-.146.087-.296.17-.45.25-.266.167-.526.32-.78.46-.253.133-.486.247-.7.34a.943.943 0 0 1-.76.02.94.94 0 0 1-.55-.53.945.945 0 0 1-.02-.76.94.94 0 0 1 .53-.55c.154-.073.344-.17.57-.29.227-.127.464-.263.71-.41.294-.173.604-.35.93-.53a9.75 9.75 0 0 1 .95-.48c.354-.173.684-.29.99-.35a2.97 2.97 0 0 1 .6-.09c.187-.007.364.013.53.06.367.107.617.333.75.68.1.247.114.493.04.74a3.28 3.28 0 0 1-.27.68l.06-.02a.915.915 0 0 0 .07-.02.922.922 0 0 1 .75.04c.254.113.427.3.52.56a.99.99 0 0 1-.03.77.937.937 0 0 1-.57.51 739.941 739.941 0 0 1-1.55.54c-.273.08-.5.14-.68.18-.173.033-.33.05-.47.05Zm4.679.1a.94.94 0 0 1-.63-.22.967.967 0 0 1-.33-.48c-.06-.2-.063-.393-.01-.58l.01-.02a.915.915 0 0 0 .02-.07c-.367.22-.7.387-1 .5a.975.975 0 0 1-.76-.03.976.976 0 0 1-.52-.56.94.94 0 0 1 .03-.77.976.976 0 0 1 .56-.52c.113-.04.303-.137.57-.29.273-.153.643-.417 1.11-.79a14.047 14.047 0 0 0 .97-.85.966.966 0 0 1 .96-.25c.273.073.48.233.62.48a.995.995 0 0 1 .14.57c-.013.193-.05.417-.11.67a1.09 1.09 0 0 1-.04.2c-.02.06-.04.127-.06.2.213-.013.41.033.59.14.187.107.323.26.41.46.113.247.12.5.02.76a.977.977 0 0 1-.53.55c-.287.127-.547.25-.78.37l-.55.29c-.133.073-.203.11-.21.11a.996.996 0 0 1-.48.13Zm5.67.65c-.073 0-.143-.003-.21-.01a.724.724 0 0 1-.14-.01 1.374 1.374 0 0 1-.5-.26 1.056 1.056 0 0 1-.33-.42.931.931 0 0 1-.11-.49c0-.107.01-.21.03-.31a9.674 9.674 0 0 1-.19-.13.754.754 0 0 1-.15-.15c-.16-.213-.24-.44-.24-.68 0-.16.037-.313.11-.46.067-.147.16-.273.28-.38l.19-.19c.087-.093.167-.187.24-.28l.2-.22.29-.31c.1-.107.193-.203.28-.29.107-.093.2-.173.28-.24.08-.067.15-.12.21-.16.347-.213.707-.28 1.08-.2.387.1.643.317.77.65l-.01-.01c.027.06.047.12.06.18.02.053.033.11.04.17.093-.1.177-.193.25-.28.073-.093.14-.177.2-.25l.14-.16a.174.174 0 0 0 .03-.04l.02-.03c.153-.18.333-.307.54-.38.213-.08.427-.093.64-.04.147.04.28.113.4.22.127.107.23.23.31.37.093.213.133.397.12.55a1.875 1.875 0 0 1-.03.3.788.788 0 0 1-.03.09l-.02.09-.06.19-.01.03c.133.007.267.043.4.11.133.06.243.143.33.25.087.107.15.223.19.35.047.127.07.25.07.37 0 .333-.137.617-.41.85l-.05.05c-.14.12-.29.24-.45.36-.153.12-.317.233-.49.34-.393.233-.78.35-1.16.35-.16 0-.32-.023-.48-.07a1.082 1.082 0 0 1-.6-.37l-.23.19c-.073.053-.157.11-.25.17h.01c-.153.107-.3.197-.44.27a5.23 5.23 0 0 1-.4.19c-.107.047-.227.08-.36.1-.127.02-.247.03-.36.03Zm5.322 0c-.073 0-.143-.003-.21-.01a.731.731 0 0 1-.14-.01 1.382 1.382 0 0 1-.5-.26 1.074 1.074 0 0 1-.33-.42 1.006 1.006 0 0 1-.09-.25 1.495 1.495 0 0 1 .01-.55 9.674 9.674 0 0 1-.19-.13.812.812 0 0 1-.15-.15c-.16-.213-.24-.44-.24-.68 0-.16.037-.313.11-.46.067-.147.16-.273.28-.38l.19-.19c.087-.093.167-.187.24-.28l.2-.22.29-.31c.1-.107.194-.203.28-.29.107-.093.2-.173.28-.24.08-.067.15-.12.21-.16.347-.213.707-.28 1.08-.2.387.1.644.317.77.65l-.01-.01c.027.06.047.12.06.18a.67.67 0 0 1 .04.17c.094-.1.177-.193.25-.28.074-.093.14-.177.2-.25l.14-.16a.13.13 0 0 0 .03-.04l.02-.03a1.26 1.26 0 0 1 .54-.38c.214-.08.427-.093.64-.04.147.04.28.113.4.22.127.107.23.23.31.37.094.213.134.397.12.55a1.66 1.66 0 0 1-.03.3.526.526 0 0 1-.03.09 1.242 1.242 0 0 1-.02.09l-.06.19-.01.03a.997.997 0 0 1 .4.11c.134.06.244.143.33.25.087.107.15.223.19.35.047.127.07.25.07.37 0 .333-.136.617-.41.85l-.05.05c-.14.12-.29.24-.45.36-.153.12-.316.233-.49.34-.393.233-.78.35-1.16.35-.16 0-.32-.023-.48-.07a1.082 1.082 0 0 1-.6-.37l-.23.19c-.073.053-.156.11-.25.17h.01c-.153.107-.3.197-.44.27a5.23 5.23 0 0 1-.4.19c-.106.047-.226.08-.36.1a2.3 2.3 0 0 1-.36.03Zm5.322 0c-.073 0-.143-.003-.21-.01a.731.731 0 0 1-.14-.01 1.382 1.382 0 0 1-.5-.26 1.074 1.074 0 0 1-.33-.42 1.006 1.006 0 0 1-.09-.25 1.495 1.495 0 0 1 .01-.55 9.674 9.674 0 0 1-.19-.13.812.812 0 0 1-.15-.15c-.16-.213-.24-.44-.24-.68 0-.16.037-.313.11-.46.067-.147.16-.273.28-.38l.19-.19c.087-.093.167-.187.24-.28l.2-.22.29-.31c.1-.107.194-.203.28-.29.107-.093.2-.173.28-.24.08-.067.15-.12.21-.16.347-.213.707-.28 1.08-.2.387.1.644.317.77.65l-.01-.01c.027.06.047.12.06.18a.67.67 0 0 1 .04.17c.094-.1.177-.193.25-.28.074-.093.14-.177.2-.25l.14-.16a.13.13 0 0 0 .03-.04l.02-.03a1.26 1.26 0 0 1 .54-.38c.214-.08.427-.093.64-.04.147.04.28.113.4.22.127.107.23.23.31.37.094.213.134.397.12.55a1.66 1.66 0 0 1-.03.3.526.526 0 0 1-.03.09 1.242 1.242 0 0 1-.02.09l-.06.19-.01.03a.997.997 0 0 1 .4.11c.134.06.244.143.33.25.087.107.15.223.19.35.047.127.07.25.07.37 0 .333-.136.617-.41.85l-.05.05c-.14.12-.29.24-.45.36-.153.12-.316.233-.49.34-.393.233-.78.35-1.16.35-.16 0-.32-.023-.48-.07a1.082 1.082 0 0 1-.6-.37l-.23.19c-.073.053-.156.11-.25.17h.01c-.153.107-.3.197-.44.27a5.23 5.23 0 0 1-.4.19c-.106.047-.226.08-.36.1a2.3 2.3 0 0 1-.36.03Z" fill="#7A3F8F"/></svg>